<svg width="2132" height="718" viewBox="0 0 2132 718" fill="none" xmlns="http://www.w3.org/2000/svg">
<rect x="533" width="533" height="718" fill="#B8E2FA"/>
<rect x="1599" width="533" height="718" fill="#B8E2FA"/>
<rect width="533" height="718" fill="#A2C3F5"/>
<rect x="1066" width="533" height="718" fill="#A2C3F5"/>
<path d="M295 264.5C295 264.5 393.406 335 533.688 335C673.969 335 764 264.5 764 264.5" stroke="white" stroke-width="2"/>
<path d="M332.885 312.673L336.464 289.248L350.267 295.799L332.885 312.673Z" fill="#FDFFAD"/>
<path d="M401.117 338.55L400.826 314.878L415.529 319.292L401.117 338.55Z" fill="#FDFFAD"/>
<path d="M435.239 347.019L433.07 323.436L448.081 326.772L435.239 347.019Z" fill="#F37A7A"/>
<path d="M470.049 353.846L465.958 330.497L481.197 332.702L470.049 353.846Z" fill="#FDFFAD"/>
<path d="M505.61 357.302L499.36 334.394L514.744 335.295L505.61 357.302Z" fill="#F37A7A"/>
<path d="M540.097 358.171L531.902 335.829L547.311 335.522L540.097 358.171Z" fill="#FDFFAD"/>
<path d="M578.955 355.993L568.723 334.431L584.044 332.824L578.955 355.993Z" fill="#F37A7A"/>
<path d="M618.297 350.274L606.003 329.719L621.099 326.752L618.297 350.274Z" fill="#FDFFAD"/>
<path d="M653.924 341.438L639.692 322.058L654.436 317.77L653.924 341.438Z" fill="#F37A7A"/>
<path d="M688.133 330.243L672.604 311.793L687.023 306.593L688.133 330.243Z" fill="#FDFFAD"/>
<path d="M718.812 317.513L701.549 300.528L715.397 294.065L718.812 317.513Z" fill="#F37A7A"/>
<path d="M365.387 326.145L367.078 302.527L381.365 308.049L365.387 326.145Z" fill="#F37A7A"/>
<path d="M1360 263C1360 263 1457.78 333.5 1597.16 333.5C1736.54 333.5 1826 263 1826 263" stroke="white" stroke-width="2"/>
<path d="M1397.61 311.124L1401.22 287.721L1414.92 294.375L1397.61 311.124Z" fill="#FDFFAD"/>
<path d="M1465.23 336.993L1465.28 313.319L1479.83 317.908L1465.23 336.993Z" fill="#FDFFAD"/>
<path d="M1499.72 345.599L1496.96 322.075L1511.95 325.053L1499.72 345.599Z" fill="#F37A7A"/>
<path d="M1534 352.354L1529.83 329.019L1544.98 331.172L1534 352.354Z" fill="#FDFFAD"/>
<path d="M1569.25 355.8L1563.06 332.876L1578.34 333.815L1569.25 355.8Z" fill="#F37A7A"/>
<path d="M1603.49 356.171L1595.35 333.829L1610.66 333.522L1603.49 356.171Z" fill="#FDFFAD"/>
<path d="M1642.27 354.483L1631.92 332.981L1647.12 331.284L1642.27 354.483Z" fill="#F37A7A"/>
<path d="M1681.43 348.281L1669.2 327.7L1684.19 324.764L1681.43 348.281Z" fill="#FDFFAD"/>
<path d="M1716.75 339.934L1702.45 320.574L1717.05 316.258L1716.75 339.934Z" fill="#F37A7A"/>
<path d="M1750.62 328.743L1735.19 310.293L1749.52 305.093L1750.62 328.743Z" fill="#FDFFAD"/>
<path d="M1781.1 316.013L1763.95 299.028L1777.71 292.565L1781.1 316.013Z" fill="#F37A7A"/>
<path d="M1429.94 324.645L1431.62 301.027L1445.81 306.549L1429.94 324.645Z" fill="#F37A7A"/>
<path d="M831 265C831 265 927.938 335.5 1066.12 335.5C1204.31 335.5 1293 265 1293 265" stroke="white" stroke-width="2"/>
<path d="M868.383 313.15L871.798 289.732L885.422 296.338L868.383 313.15Z" fill="#FDFFAD"/>
<path d="M935.421 339.032L935.318 315.358L949.767 319.831L935.421 339.032Z" fill="#FDFFAD"/>
<path d="M969.522 347.599L966.78 324.075L981.649 327.053L969.522 347.599Z" fill="#F37A7A"/>
<path d="M1003.52 354.354L999.36 331.021L1014.38 333.17L1003.52 354.354Z" fill="#FDFFAD"/>
<path d="M1038.5 357.802L1032.29 334.888L1047.45 335.801L1038.5 357.802Z" fill="#F37A7A"/>
<path d="M1071.89 358.171L1063.82 335.829L1079 335.522L1071.89 358.171Z" fill="#FDFFAD"/>
<path d="M1110.82 356.491L1100.59 334.944L1115.67 333.312L1110.82 356.491Z" fill="#F37A7A"/>
<path d="M1149.95 350.137L1137.38 329.816L1152.19 326.566L1149.95 350.137Z" fill="#FDFFAD"/>
<path d="M1184.83 341.912L1170.46 322.624L1184.9 318.23L1184.83 341.912Z" fill="#F37A7A"/>
<path d="M1218.27 330.743L1202.97 312.293L1217.17 307.093L1218.27 330.743Z" fill="#FDFFAD"/>
<path d="M1248.49 318.013L1231.48 301.028L1245.12 294.565L1248.49 318.013Z" fill="#F37A7A"/>
<path d="M900.337 326.645L902.002 303.027L916.077 308.549L900.337 326.645Z" fill="#F37A7A"/>
<path d="M1285.81 461L1296.81 261H1363.81L1382.81 461H1285.81Z" fill="#DCE1E7"/>
<rect x="1296.81" y="226" width="67" height="35" fill="#FAC76C"/>
<rect x="1303.81" y="226" width="53" height="35" fill="#F3DFAC"/>
<mask id="mask0" mask-type="alpha" maskUnits="userSpaceOnUse" x="1285" y="261" width="98" height="200">
<path d="M1285.81 461L1296.81 261H1363.81L1382.81 461H1285.81Z" fill="#74FF51"/>
</mask>
<g mask="url(#mask0)">
<line x1="1293.66" y1="291.122" x2="1371.66" y2="314.122" stroke="#E42223" stroke-width="6"/>
<line x1="1291.63" y1="334.115" x2="1375.63" y2="358.115" stroke="#E42223" stroke-width="6"/>
<line x1="1288.62" y1="381.113" x2="1380.62" y2="407.113" stroke="#E42223" stroke-width="6"/>
</g>
<mask id="mask1" mask-type="alpha" maskUnits="userSpaceOnUse" x="1285" y="261" width="98" height="200">
<path d="M1285.81 461L1296.81 261H1363.81L1382.81 461H1285.81Z" fill="#DCE1E7"/>
<path d="M1285.81 461L1296.81 261H1363.81L1382.81 461H1285.81Z" fill="url(#paint0_linear)"/>
</mask>
<g mask="url(#mask1)">
<path d="M1276.81 462.45L1365.81 261H1376.9L1386.81 461L1276.81 462.45Z" fill="black" fill-opacity="0.1"/>
</g>
<rect x="1291.81" y="261" width="77" height="8" fill="#E42223"/>
<line x1="1329" y1="154" x2="1329" y2="205" stroke="white" stroke-width="2"/>
<path d="M1366 159.25L1330.66 164.446L1330.66 154.054L1366 159.25Z" fill="#E42223"/>
<path d="M1366 165.25L1330.66 170.446L1330.66 160.054L1366 165.25Z" fill="#E42223"/>
<path d="M1459.31 510H1228.28C1228.28 510 1213.81 409.5 1257.81 385C1254.31 416.5 1266.11 440 1284.81 440C1303.51 440 1293.81 397 1337.81 381.5C1327.81 414 1347.31 440 1360.31 440C1373.31 440 1381.81 389 1415.81 381.5C1392.31 454.5 1459.31 510 1459.31 510Z" fill="#17457B"/>
<mask id="mask2" mask-type="alpha" maskUnits="userSpaceOnUse" x="1226" y="381" width="234" height="129">
<path d="M1459.31 510H1228.28C1228.28 510 1213.81 409.5 1257.81 385C1254.31 416.5 1266.11 440 1284.81 440C1303.51 440 1293.81 397 1337.81 381.5C1327.81 414 1347.31 440 1360.31 440C1373.31 440 1381.81 389 1415.81 381.5C1392.31 454.5 1459.31 510 1459.31 510Z" fill="#86FF84"/>
</mask>
<g mask="url(#mask2)">
<path d="M1257.31 481.5C1256.49 470.029 1223.81 472 1223.81 472V490.5C1223.81 490.5 1258.13 492.97 1257.31 481.5Z" fill="#F0F0F0"/>
<path d="M1224.56 421H1425.93C1425.93 421 1432.83 465 1425.93 465C1419.04 465 1412.22 459.5 1401.67 459.5C1391.12 459.5 1387.76 465 1375.78 465C1363.79 465 1347.05 453.5 1336.5 453.5C1325.95 453.5 1312.97 465 1300.17 465C1287.37 465 1268.13 457 1259.5 457C1250.87 457 1234.81 465 1224.56 465C1214.3 465 1224.56 421 1224.56 421Z" fill="#184169"/>
<path d="M1226 404H1426L1421.9 444.055C1421.9 444.055 1411.42 430.703 1399.99 430.703C1388.57 430.703 1380.47 449 1367.14 449C1350.58 449 1343.97 430.703 1322.85 430.703C1307.64 430.703 1296.71 449 1286 449C1276 449 1263.8 430.703 1251.9 430.703C1239.99 430.703 1226 444.055 1226 444.055V404Z" fill="#1899C1"/>
<path d="M1216 377H1426V422.793C1426 422.793 1401.69 396.121 1375.69 420.194C1361.04 433.76 1342.47 406.752 1331.19 406.058C1302.19 404.273 1305.69 417.563 1287 417.563C1268.31 417.563 1265.69 409.719 1248.69 409.719C1231.69 409.719 1216 417.563 1216 417.563V377Z" fill="#5DBFD6"/>
</g>
<circle cx="1282.81" cy="510" r="9" fill="#C4C4C4" stroke="black" stroke-width="9"/>
<circle cx="1377.81" cy="510" r="9" fill="#C4C4C4" stroke="black" stroke-width="9"/>
<path d="M1291.81 216H1304.31L1318.31 183.5H1340.31L1356.81 216H1368.81V226H1291.81V216Z" fill="#E42223"/>
<mask id="mask3" mask-type="alpha" maskUnits="userSpaceOnUse" x="708" y="404" width="76" height="61">
<path d="M735.961 416.267C763.801 400.239 783.418 444.873 783.418 444.873L721.672 464.46C721.672 464.46 708.121 432.294 735.961 416.267Z" fill="#316736"/>
</mask>
<g mask="url(#mask3)">
<rect x="713.582" y="439.46" width="82.4687" height="26.0794" transform="rotate(-9.63378 713.582 439.46)" fill="#316736"/>
<rect x="712.916" y="435.535" width="82.4687" height="9.79447" transform="rotate(-9.63378 712.916 435.535)" fill="#385E36"/>
<rect x="713.411" y="423.458" width="74.0556" height="12.8474" transform="rotate(-9.63378 713.411 423.458)" fill="#3D5736"/>
<rect x="714.858" y="414.903" width="64.1126" height="12.2038" transform="rotate(-9.63378 714.858 414.903)" fill="#375039"/>
</g>
<mask id="mask4" mask-type="alpha" maskUnits="userSpaceOnUse" x="834" y="393" width="76" height="62">
<path d="M874.584 402.872C906.49 406.609 895.62 454.137 895.62 454.137L834.375 433.037C834.375 433.037 842.678 399.136 874.584 402.872Z" fill="#316736"/>
</mask>
<g mask="url(#mask4)">
<rect x="842.789" y="408.144" width="82.4687" height="12.9028" transform="rotate(26.9752 842.789 408.144)" fill="#385E36"/>
<rect x="852.195" y="395.197" width="74.0556" height="17.1263" transform="rotate(26.9752 852.195 395.197)" fill="#3D5736"/>
<rect x="858.458" y="389.193" width="64.1126" height="14.9476" transform="rotate(26.9752 858.458 389.193)" fill="#375039"/>
</g>
<mask id="mask5" mask-type="alpha" maskUnits="userSpaceOnUse" x="853" y="432" width="68" height="79">
<path d="M910.289 440.551C940.029 462.279 897 510.5 897 510.5L853.138 447.978C853.138 447.978 880.55 418.823 910.289 440.551Z" fill="#316736"/>
</mask>
<g mask="url(#mask5)">
<rect x="869.879" y="442.973" width="94.5529" height="16.6518" transform="rotate(56.4474 869.879 442.973)" fill="#316736"/>
<rect x="875.578" y="427.878" width="94.5529" height="14.7934" transform="rotate(56.4474 875.578 427.878)" fill="#385E36"/>
<rect x="892.27" y="420.26" width="84.907" height="19.6358" transform="rotate(56.4474 892.27 420.26)" fill="#3D5736"/>
<rect x="901.908" y="417.8" width="73.507" height="17.1378" transform="rotate(56.4474 901.908 417.8)" fill="#375039"/>
</g>
<path d="M753 461L764 261H831L850 461H753Z" fill="#DCE1E7"/>
<mask id="mask6" mask-type="alpha" maskUnits="userSpaceOnUse" x="753" y="261" width="97" height="200">
<path d="M753 461L764 261H831L850 461H753Z" fill="#9DFF3C"/>
</mask>
<g mask="url(#mask6)">
<path d="M753 316H780.741V327H800" stroke="#FF7D27" stroke-width="4"/>
<path d="M747 414H776.444V400H801" stroke="#FF7D27" stroke-width="4"/>
<path d="M799 295H817.148V285H838" stroke="#FF7D27" stroke-width="4"/>
<path d="M800 364H821V375.5H842.5" stroke="#FF7D27" stroke-width="4"/>
</g>
<mask id="mask7" mask-type="alpha" maskUnits="userSpaceOnUse" x="753" y="261" width="97" height="200">
<path d="M753 461L764 261H831L850 461H753Z" fill="#DCE1E7"/>
<path d="M753 461L764 261H831L850 461H753Z" fill="url(#paint1_linear)"/>
</mask>
<g mask="url(#mask7)">
<path d="M744 462.45L833 261H844.089L854 461L744 462.45Z" fill="black" fill-opacity="0.1"/>
</g>
<path d="M799 425C895.587 409.436 897.5 511 897.5 511L698 511C698 511 702.413 440.564 799 425Z" fill="#316736"/>
<mask id="mask8" mask-type="alpha" maskUnits="userSpaceOnUse" x="786" y="398" width="71" height="51">
<path d="M820.329 402.746C852.33 399.936 851.321 448.681 851.321 448.681L787.07 440.437C787.07 440.437 788.328 405.556 820.329 402.746Z" fill="#316736"/>
</mask>
<g mask="url(#mask8)">
<rect x="790.263" y="414.355" width="82.4687" height="12.9028" transform="rotate(15.2776 790.263 414.355)" fill="#385E36"/>
<rect x="796.848" y="399.77" width="74.0556" height="17.1263" transform="rotate(15.2776 796.848 399.77)" fill="#3D5736"/>
<rect x="801.764" y="392.621" width="64.1126" height="14.9476" transform="rotate(15.2776 801.764 392.621)" fill="#375039"/>
</g>
<mask id="mask9" mask-type="alpha" maskUnits="userSpaceOnUse" x="802" y="418" width="88" height="73">
<path d="M857.567 419.238C901.791 423.804 887.124 490.664 887.124 490.664L802.119 462.374C802.119 462.374 813.343 414.671 857.567 419.238Z" fill="#10EF26"/>
</mask>
<g mask="url(#mask9)">
<path d="M859.568 417.238C903.792 421.804 889.124 488.664 889.124 488.664L805.12 444.374C805.12 444.374 815.343 412.671 859.568 417.238Z" fill="#478D4E"/>
</g>
<mask id="mask10" mask-type="alpha" maskUnits="userSpaceOnUse" x="800" y="422" width="89" height="73">
<path d="M856.136 422.427C900.991 427.203 886.428 494.098 886.428 494.098L800.121 465.375C800.121 465.375 811.281 417.651 856.136 422.427Z" fill="#316736"/>
</mask>
<g mask="url(#mask10)">
<rect x="811.568" y="430.298" width="115.802" height="18.118" transform="rotate(26.3736 811.568 430.298)" fill="#385E36"/>
<rect x="824.585" y="411.98" width="103.989" height="24.0487" transform="rotate(26.3736 824.585 411.98)" fill="#3D5736"/>
<rect x="833.292" y="403.458" width="90.0266" height="20.9893" transform="rotate(26.3736 833.292 403.458)" fill="#375039"/>
</g>
<rect x="764" y="226" width="67" height="35" fill="#FAC76C"/>
<rect x="771" y="226" width="53" height="35" fill="#F3DFAC"/>
<line x1="796.097" y1="160.754" x2="796.097" y2="212" stroke="white" stroke-width="2"/>
<path d="M833 167.913L797.75 174.766L797.75 161.06L833 167.913Z" fill="#FF7D27"/>
<path d="M758 218C758 218 768.5 204 797.5 204C826.5 204 835 218 835 218V226H758V218Z" fill="#FF7D27"/>
<path d="M758 218C758 218 768.5 204 797.5 204C826.5 204 835 218 835 218V226H758V218Z" fill="#FF7D27"/>
<mask id="mask11" mask-type="alpha" maskUnits="userSpaceOnUse" x="698" y="423" width="200" height="88">
<path d="M799 425C895.587 409.436 897.5 511 897.5 511L698 511C698 511 702.413 440.564 799 425Z" fill="#41FF54"/>
</mask>
<g mask="url(#mask11)">
<path d="M755.682 429.389C800.471 445.423 814.943 466.418 824.062 523.173L780.22 555.14L711.839 461.356L755.682 429.389Z" fill="#385E36"/>
<path d="M737.695 441.265C780.783 460.488 794.799 479.67 801.062 528.174L757.22 560.141L693.853 473.232L737.695 441.265Z" fill="#3D5736"/>
<path d="M721.671 453.575C764.606 472.424 776.76 488.641 776.063 528.174L732.22 560.141L677.828 485.542L721.671 453.575Z" fill="#375039"/>
<path d="M747 474H703L696 487H756L747 474Z" fill="#F0F0F0"/>
</g>
<circle cx="750" cy="510" r="9" fill="#C4C4C4" stroke="black" stroke-width="9"/>
<circle cx="845" cy="510" r="9" fill="#C4C4C4" stroke="black" stroke-width="9"/>
<rect x="759" y="261" width="77" height="8" fill="#FF7D27"/>
<mask id="mask12" mask-type="alpha" maskUnits="userSpaceOnUse" x="217" y="262" width="97" height="200">
<path d="M217 462L228 262H295L314 462H217Z" fill="#DCE1E7"/>
<path d="M217 462L228 262H295L314 462H217Z" fill="url(#paint2_linear)"/>
</mask>
<g mask="url(#mask12)">
<path d="M217 462L228 262H295L314 462H217Z" fill="#DCE1E7"/>
</g>
<mask id="mask13" mask-type="alpha" maskUnits="userSpaceOnUse" x="217" y="262" width="97" height="200">
<path d="M217 462L228 262H295L314 462H217Z" fill="#2EFF81"/>
</mask>
<g mask="url(#mask13)">
<path d="M214 315L215.941 293H308.051L310 315H214Z" fill="#E42223"/>
<path d="M212 366L214.187 342H312.438L316 366H212Z" fill="#E42223"/>
<path d="M205 417L206.745 393H319.157L321 417H205Z" fill="#E42223"/>
</g>
<mask id="mask14" mask-type="alpha" maskUnits="userSpaceOnUse" x="217" y="262" width="97" height="200">
<path d="M217 462L228 262H295L314 462H217Z" fill="#DCE1E7"/>
<path d="M217 462L228 262H295L314 462H217Z" fill="url(#paint3_linear)"/>
</mask>
<g mask="url(#mask14)">
<path d="M218 463.45L296 262H308.089L318 462L218 463.45Z" fill="black" fill-opacity="0.1"/>
</g>
<rect x="228" y="227" width="67" height="35" fill="#FAC76C"/>
<rect x="235" y="227" width="53" height="35" fill="#F3DFAC"/>
<line x1="260.097" y1="164.754" x2="260.097" y2="216" stroke="white" stroke-width="2"/>
<path d="M297 171.913L261.75 178.766L261.75 165.06L297 171.913Z" fill="#E42223"/>
<line x1="260.097" y1="170.754" x2="260.097" y2="222" stroke="white" stroke-width="2"/>
<path d="M297 177.913L261.75 184.766L261.75 171.06L297 177.913Z" fill="#E42223"/>
<path d="M261 202L300.837 227.5H221.163L261 202Z" fill="#E42223"/>
<rect x="223" y="262" width="77" height="8" fill="#E42223"/>
<path d="M216.5 462H314L354 511H178.5V489.5L216.5 462Z" fill="#618193"/>
<mask id="mask15" mask-type="alpha" maskUnits="userSpaceOnUse" x="178" y="462" width="176" height="50">
<path d="M178.5 489.5L216.5 462H314L354 511L178.5 511.5V489.5Z" fill="#47FF5A"/>
</mask>
<g mask="url(#mask15)">
<path d="M176 484L191 469H240V484H176Z" fill="#F0F0F0"/>
<path d="M288.362 455.852L314.541 460.786L356.81 512.352L343.571 523.204L288.362 455.852Z" fill="#4C616F"/>
<path d="M269.55 452.902L295.139 461.06L340.312 518.123L328.551 527.433L269.55 452.902Z" fill="#526F80"/>
</g>
<circle cx="214" cy="511" r="9" fill="#C4C4C4" stroke="black" stroke-width="9"/>
<circle cx="309" cy="511" r="9" fill="#C4C4C4" stroke="black" stroke-width="9"/>
<path d="M1815 460L1826 260H1893L1912 460H1815Z" fill="#DCE1E7"/>
<rect x="1826" y="225" width="67" height="35" fill="#FAC76C"/>
<rect x="1833" y="225" width="53" height="35" fill="#F3DFAC"/>
<line x1="1840" y1="264.051" x2="1835" y2="460.051" stroke="#5DA6DB" stroke-width="4"/>
<line x1="1860.18" y1="263.981" x2="1862" y2="459.981" stroke="#5DA6DB" stroke-width="4"/>
<line x1="1879.18" y1="267.908" x2="1888" y2="459.908" stroke="#5DA6DB" stroke-width="4"/>
<mask id="mask16" mask-type="alpha" maskUnits="userSpaceOnUse" x="1815" y="259" width="97" height="200">
<path d="M1815 459L1826 259H1893L1912 459H1815Z" fill="#DCE1E7"/>
<path d="M1815 459L1826 259H1893L1912 459H1815Z" fill="url(#paint4_linear)"/>
</mask>
<g mask="url(#mask16)">
<path d="M1806 460.45L1895 259H1906.09L1916 459L1806 460.45Z" fill="black" fill-opacity="0.1"/>
</g>
<rect x="1821" y="260" width="77" height="8" fill="#5DA6DB"/>
<path d="M1757.47 509L1739 463L1800.62 405L1814.3 449L1831 379.5L1897.44 411L1905.86 440L1940 423L1989 455L1953.22 509H1757.47Z" fill="#676565"/>
<mask id="mask17" mask-type="alpha" maskUnits="userSpaceOnUse" x="1739" y="379" width="250" height="130">
<path d="M1757.47 509L1739 463L1800.62 405L1814.3 449L1831 379.5L1897.44 411L1905.86 440L1940 423L1989 455L1953.22 509H1757.47Z" fill="#6BFF71"/>
</mask>
<g mask="url(#mask17)">
<path d="M1778 474H1740L1745 487H1787L1778 474Z" fill="#F0F0F0"/>
<path d="M1678 428H1992V470L1951.5 473.5L1915.5 463L1874 475L1824.5 463L1805.5 470.5L1734.25 463H1678V428Z" fill="#494949"/>
<path d="M1678 375H1982V437L1929.5 454L1874 432L1845.5 447.5L1830.5 430L1786.5 451L1754 436L1678 444V375Z" fill="#262626"/>
<path d="M1678 371H1967V423L1935.38 436L1900.5 390L1847.5 408L1818.5 390L1792.25 433L1765.12 423.5L1678 423V371Z" fill="#010101"/>
</g>
<circle cx="1812" cy="509" r="9" fill="#C4C4C4" stroke="black" stroke-width="9"/>
<circle cx="1907" cy="509" r="9" fill="#C4C4C4" stroke="black" stroke-width="9"/>
<line x1="1859.1" y1="161.754" x2="1859.1" y2="213" stroke="white" stroke-width="2"/>
<path d="M1896 168.913L1860.75 175.766L1860.75 162.06L1896 168.913Z" fill="#5DA6DB"/>
<rect x="1821" y="206" width="77" height="19" fill="#5DA6DB"/>
<defs>
<linearGradient id="paint0_linear" x1="1270.81" y1="261" x2="1382.81" y2="261" gradientUnits="userSpaceOnUse">
<stop stop-color="#8E8E8E"/>
<stop offset="1" stop-color="white" stop-opacity="0"/>
</linearGradient>
<linearGradient id="paint1_linear" x1="738" y1="261" x2="850" y2="261" gradientUnits="userSpaceOnUse">
<stop stop-color="#8E8E8E"/>
<stop offset="1" stop-color="white" stop-opacity="0"/>
</linearGradient>
<linearGradient id="paint2_linear" x1="202" y1="262" x2="314" y2="262" gradientUnits="userSpaceOnUse">
<stop stop-color="#8E8E8E"/>
<stop offset="1" stop-color="white" stop-opacity="0"/>
</linearGradient>
<linearGradient id="paint3_linear" x1="202" y1="262" x2="314" y2="262" gradientUnits="userSpaceOnUse">
<stop stop-color="#8E8E8E"/>
<stop offset="1" stop-color="white" stop-opacity="0"/>
</linearGradient>
<linearGradient id="paint4_linear" x1="1800" y1="259" x2="1912" y2="259" gradientUnits="userSpaceOnUse">
<stop stop-color="#8E8E8E"/>
<stop offset="1" stop-color="white" stop-opacity="0"/>
</linearGradient>
</defs>
</svg>
