<svg version="1.1" viewBox="0.0 0.0 600.0 371.0" fill="none" stroke="none" stroke-linecap="square" stroke-miterlimit="10" width="600" height="371" xmlns:xlink="http://www.w3.org/1999/xlink" xmlns="http://www.w3.org/2000/svg"><path fill="#ffffff" d="M0 0L600.0 0L600.0 371.0L0 371.0L0 0Z" fill-rule="nonzero"/><path stroke="#333333" stroke-width="1.0" stroke-linecap="butt" d="M45.5 331.5L581.5 331.5" fill-rule="nonzero"/><path stroke="#cccccc" stroke-width="1.0" stroke-linecap="butt" d="M45.5 241.5L581.5 241.5" fill-rule="nonzero"/><path stroke="#cccccc" stroke-width="1.0" stroke-linecap="butt" d="M45.5 152.5L581.5 152.5" fill-rule="nonzero"/><path stroke="#cccccc" stroke-width="1.0" stroke-linecap="butt" d="M45.5 62.5L581.5 62.5" fill-rule="nonzero"/><clipPath id="id_0"><path d="M45.55 62.416668L581.45 62.416668L581.45 331.45L45.55 331.45L45.55 62.416668Z" clip-rule="nonzero"/></clipPath><path stroke="#000000" stroke-width="0.0" stroke-linecap="butt" stroke-opacity="0.0" clip-path="url(#id_0)" d="M76.0 331.0L46.0 331.0L46.0 310.0C46.0 308.89542 46.89543 308.0 48.0 308.0L74.0 308.0C75.10457 308.0 76.0 308.89542 76.0 310.0Z" fill-rule="nonzero"/><path fill="#4285f4" clip-path="url(#id_0)" d="M76.0 331.0L46.0 331.0L46.0 310.0C46.0 308.89542 46.89543 308.0 48.0 308.0L74.0 308.0C75.10457 308.0 76.0 308.89542 76.0 310.0Z" fill-rule="nonzero"/><path stroke="#000000" stroke-width="0.0" stroke-linecap="butt" stroke-opacity="0.0" clip-path="url(#id_0)" d="M108.0 331.0L78.0 331.0L78.0 330.5C78.0 330.22385 78.223854 330.0 78.5 330.0L107.5 330.0C107.776146 330.0 108.0 330.22385 108.0 330.5Z" fill-rule="nonzero"/><path fill="#4285f4" clip-path="url(#id_0)" d="M108.0 331.0L78.0 331.0L78.0 330.5C78.0 330.22385 78.223854 330.0 78.5 330.0L107.5 330.0C107.776146 330.0 108.0 330.22385 108.0 330.5Z" fill-rule="nonzero"/><path stroke="#000000" stroke-width="0.0" stroke-linecap="butt" stroke-opacity="0.0" clip-path="url(#id_0)" d="M139.0 331.0L109.0 331.0L109.0 331.0L139.0 331.0Z" fill-rule="nonzero"/><path fill="#4285f4" clip-path="url(#id_0)" d="M139.0 331.0L109.0 331.0L109.0 331.0L139.0 331.0Z" fill-rule="nonzero"/><path stroke="#000000" stroke-width="0.0" stroke-linecap="butt" stroke-opacity="0.0" clip-path="url(#id_0)" d="M171.0 331.0L141.0 331.0L141.0 331.0L171.0 331.0Z" fill-rule="nonzero"/><path fill="#4285f4" clip-path="url(#id_0)" d="M171.0 331.0L141.0 331.0L141.0 331.0L171.0 331.0Z" fill-rule="nonzero"/><path stroke="#000000" stroke-width="0.0" stroke-linecap="butt" stroke-opacity="0.0" clip-path="url(#id_0)" d="M202.0 331.0L172.0 331.0L172.0 331.0L202.0 331.0Z" fill-rule="nonzero"/><path fill="#4285f4" clip-path="url(#id_0)" d="M202.0 331.0L172.0 331.0L172.0 331.0L202.0 331.0Z" fill-rule="nonzero"/><path stroke="#000000" stroke-width="0.0" stroke-linecap="butt" stroke-opacity="0.0" clip-path="url(#id_0)" d="M234.0 331.0L204.0 331.0L204.0 324.0C204.0 322.89542 204.89543 322.0 206.0 322.0L232.0 322.0C233.10457 322.0 234.0 322.89542 234.0 324.0Z" fill-rule="nonzero"/><path fill="#4285f4" clip-path="url(#id_0)" d="M234.0 331.0L204.0 331.0L204.0 324.0C204.0 322.89542 204.89543 322.0 206.0 322.0L232.0 322.0C233.10457 322.0 234.0 322.89542 234.0 324.0Z" fill-rule="nonzero"/><path stroke="#000000" stroke-width="0.0" stroke-linecap="butt" stroke-opacity="0.0" clip-path="url(#id_0)" d="M265.0 331.0L235.0 331.0L235.0 331.0L265.0 331.0Z" fill-rule="nonzero"/><path fill="#4285f4" clip-path="url(#id_0)" d="M265.0 331.0L235.0 331.0L235.0 331.0L265.0 331.0Z" fill-rule="nonzero"/><path stroke="#000000" stroke-width="0.0" stroke-linecap="butt" stroke-opacity="0.0" clip-path="url(#id_0)" d="M297.0 331.0L267.0 331.0L267.0 329.5C267.0 328.67157 267.67157 328.0 268.5 328.0L295.5 328.0C296.32843 328.0 297.0 328.67157 297.0 329.5Z" fill-rule="nonzero"/><path fill="#4285f4" clip-path="url(#id_0)" d="M297.0 331.0L267.0 331.0L267.0 329.5C267.0 328.67157 267.67157 328.0 268.5 328.0L295.5 328.0C296.32843 328.0 297.0 328.67157 297.0 329.5Z" fill-rule="nonzero"/><path stroke="#000000" stroke-width="0.0" stroke-linecap="butt" stroke-opacity="0.0" clip-path="url(#id_0)" d="M329.0 331.0L299.0 331.0L299.0 331.0L329.0 331.0Z" fill-rule="nonzero"/><path fill="#4285f4" clip-path="url(#id_0)" d="M329.0 331.0L299.0 331.0L299.0 331.0L329.0 331.0Z" fill-rule="nonzero"/><path stroke="#000000" stroke-width="0.0" stroke-linecap="butt" stroke-opacity="0.0" clip-path="url(#id_0)" d="M360.0 331.0L330.0 331.0L330.0 323.0C330.0 321.89542 330.89542 321.0 332.0 321.0L358.0 321.0C359.10458 321.0 360.0 321.89542 360.0 323.0Z" fill-rule="nonzero"/><path fill="#4285f4" clip-path="url(#id_0)" d="M360.0 331.0L330.0 331.0L330.0 323.0C330.0 321.89542 330.89542 321.0 332.0 321.0L358.0 321.0C359.10458 321.0 360.0 321.89542 360.0 323.0Z" fill-rule="nonzero"/><path stroke="#000000" stroke-width="0.0" stroke-linecap="butt" stroke-opacity="0.0" clip-path="url(#id_0)" d="M392.0 331.0L362.0 331.0L362.0 330.5C362.0 330.22385 362.22385 330.0 362.5 330.0L391.5 330.0C391.77615 330.0 392.0 330.22385 392.0 330.5Z" fill-rule="nonzero"/><path fill="#4285f4" clip-path="url(#id_0)" d="M392.0 331.0L362.0 331.0L362.0 330.5C362.0 330.22385 362.22385 330.0 362.5 330.0L391.5 330.0C391.77615 330.0 392.0 330.22385 392.0 330.5Z" fill-rule="nonzero"/><path stroke="#000000" stroke-width="0.0" stroke-linecap="butt" stroke-opacity="0.0" clip-path="url(#id_0)" d="M423.0 331.0L393.0 331.0L393.0 319.0C393.0 317.89542 393.89542 317.0 395.0 317.0L421.0 317.0C422.10458 317.0 423.0 317.89542 423.0 319.0Z" fill-rule="nonzero"/><path fill="#4285f4" clip-path="url(#id_0)" d="M423.0 331.0L393.0 331.0L393.0 319.0C393.0 317.89542 393.89542 317.0 395.0 317.0L421.0 317.0C422.10458 317.0 423.0 317.89542 423.0 319.0Z" fill-rule="nonzero"/><path stroke="#000000" stroke-width="0.0" stroke-linecap="butt" stroke-opacity="0.0" clip-path="url(#id_0)" d="M455.0 331.0L425.0 331.0L425.0 298.0C425.0 296.89542 425.89542 296.0 427.0 296.0L453.0 296.0C454.10458 296.0 455.0 296.89542 455.0 298.0Z" fill-rule="nonzero"/><path fill="#4285f4" clip-path="url(#id_0)" d="M455.0 331.0L425.0 331.0L425.0 298.0C425.0 296.89542 425.89542 296.0 427.0 296.0L453.0 296.0C454.10458 296.0 455.0 296.89542 455.0 298.0Z" fill-rule="nonzero"/><path stroke="#000000" stroke-width="0.0" stroke-linecap="butt" stroke-opacity="0.0" clip-path="url(#id_0)" d="M486.0 331.0L456.0 331.0L456.0 292.0C456.0 290.89542 456.89542 290.0 458.0 290.0L484.0 290.0C485.10458 290.0 486.0 290.89542 486.0 292.0Z" fill-rule="nonzero"/><path fill="#4285f4" clip-path="url(#id_0)" d="M486.0 331.0L456.0 331.0L456.0 292.0C456.0 290.89542 456.89542 290.0 458.0 290.0L484.0 290.0C485.10458 290.0 486.0 290.89542 486.0 292.0Z" fill-rule="nonzero"/><path stroke="#000000" stroke-width="0.0" stroke-linecap="butt" stroke-opacity="0.0" clip-path="url(#id_0)" d="M518.0 331.0L488.0 331.0L488.0 294.0C488.0 292.89542 488.89542 292.0 490.0 292.0L516.0 292.0C517.10455 292.0 518.0 292.89542 518.0 294.0Z" fill-rule="nonzero"/><path fill="#4285f4" clip-path="url(#id_0)" d="M518.0 331.0L488.0 331.0L488.0 294.0C488.0 292.89542 488.89542 292.0 490.0 292.0L516.0 292.0C517.10455 292.0 518.0 292.89542 518.0 294.0Z" fill-rule="nonzero"/><path stroke="#000000" stroke-width="0.0" stroke-linecap="butt" stroke-opacity="0.0" clip-path="url(#id_0)" d="M549.0 331.0L519.0 331.0L519.0 204.0C519.0 202.89543 519.89545 202.0 521.0 202.0L547.0 202.0C548.10455 202.0 549.0 202.89543 549.0 204.0Z" fill-rule="nonzero"/><path fill="#4285f4" clip-path="url(#id_0)" d="M549.0 331.0L519.0 331.0L519.0 204.0C519.0 202.89543 519.89545 202.0 521.0 202.0L547.0 202.0C548.10455 202.0 549.0 202.89543 549.0 204.0Z" fill-rule="nonzero"/><path stroke="#000000" stroke-width="0.0" stroke-linecap="butt" stroke-opacity="0.0" clip-path="url(#id_0)" d="M581.0 331.0L551.0 331.0L551.0 70.0C551.0 68.89543 551.89545 68.0 553.0 68.0L579.0 68.0C580.10455 68.0 581.0 68.89543 581.0 70.0Z" fill-rule="nonzero"/><path fill="#4285f4" clip-path="url(#id_0)" d="M581.0 331.0L551.0 331.0L551.0 70.0C551.0 68.89543 551.89545 68.0 553.0 68.0L579.0 68.0C580.10455 68.0 581.0 68.89543 581.0 70.0Z" fill-rule="nonzero"/><path fill="#757575" d="M38.6125 332.3094Q38.6125 334.21564 37.95625 335.15314Q37.315624 336.075 35.925 336.075Q34.565624 336.075 33.909374 335.16876Q33.253124 334.2625 33.221874 332.45L33.221874 331.0125Q33.221874 329.1219 33.8625 328.21564Q34.51875 327.29376 35.909374 327.29376Q37.284374 327.29376 37.940624 328.1844Q38.596874 329.0594 38.6125 330.90314L38.6125 332.3094ZM37.51875 330.825Q37.51875 329.45 37.128124 328.825Q36.753124 328.1844 35.909374 328.1844Q35.08125 328.1844 34.690624 328.825Q34.315624 329.45 34.315624 330.7469L34.315624 332.48126Q34.315624 333.85626 34.70625 334.52814Q35.1125 335.1844 35.925 335.1844Q36.721874 335.1844 37.1125 334.5594Q37.503124 333.9344 37.51875 332.60626L37.51875 330.825Z" fill-rule="nonzero"/><path fill="#757575" d="M26.753124 241.99097L27.190624 237.74097L31.565624 237.74097L31.565624 238.74097L28.1125 238.74097L27.846874 241.06909Q28.4875 240.69409 29.284374 240.69409Q30.440624 240.69409 31.128124 241.47534Q31.815624 242.24097 31.815624 243.55347Q31.815624 244.86597 31.096874 245.63159Q30.39375 246.39722 29.1125 246.39722Q27.9875 246.39722 27.26875 245.77222Q26.55 245.13159 26.45625 244.02222L27.471874 244.02222Q27.58125 244.75659 28.003124 245.13159Q28.425 245.50659 29.1125 245.50659Q29.8625 245.50659 30.3 244.99097Q30.7375 244.47534 30.7375 243.56909Q30.7375 242.70972 30.26875 242.19409Q29.8 241.67847 29.01875 241.67847Q28.315624 241.67847 27.909374 241.97534L27.628124 242.20972L26.753124 241.99097ZM38.6125 242.63159Q38.6125 244.53784 37.95625 245.47534Q37.315624 246.39722 35.925 246.39722Q34.565624 246.39722 33.909374 245.49097Q33.253124 244.58472 33.221874 242.77222L33.221874 241.33472Q33.221874 239.44409 33.8625 238.53784Q34.51875 237.61597 35.909374 237.61597Q37.284374 237.61597 37.940624 238.50659Q38.596874 239.38159 38.6125 241.22534L38.6125 242.63159ZM37.51875 241.14722Q37.51875 239.77222 37.128124 239.14722Q36.753124 238.50659 35.909374 238.50659Q35.08125 238.50659 34.690624 239.14722Q34.315624 239.77222 34.315624 241.06909L34.315624 242.80347Q34.315624 244.17847 34.70625 244.85034Q35.1125 245.50659 35.925 245.50659Q36.721874 245.50659 37.1125 244.88159Q37.503124 244.25659 37.51875 242.92847L37.51875 241.14722Z" fill-rule="nonzero"/><path fill="#757575" d="M22.815624 156.59445L21.7375 156.59445L21.7375 149.3757L19.55 150.17258L19.55 149.1882L22.659374 148.01633L22.815624 148.01633L22.815624 156.59445ZM31.6125 152.95383Q31.6125 154.86008 30.95625 155.79758Q30.315624 156.71945 28.925 156.71945Q27.565624 156.71945 26.909374 155.8132Q26.253124 154.90695 26.221874 153.09445L26.221874 151.65695Q26.221874 149.76633 26.8625 148.86008Q27.51875 147.9382 28.909374 147.9382Q30.284374 147.9382 30.940624 148.82883Q31.596874 149.70383 31.6125 151.54758L31.6125 152.95383ZM30.51875 151.46945Q30.51875 150.09445 30.128124 149.46945Q29.753124 148.82883 28.909374 148.82883Q28.08125 148.82883 27.690624 149.46945Q27.315624 150.09445 27.315624 151.39133L27.315624 153.1257Q27.315624 154.5007 27.70625 155.17258Q28.1125 155.82883 28.925 155.82883Q29.721874 155.82883 30.1125 155.20383Q30.503124 154.57883 30.51875 153.2507L30.51875 151.46945ZM38.6125 152.95383Q38.6125 154.86008 37.95625 155.79758Q37.315624 156.71945 35.925 156.71945Q34.565624 156.71945 33.909374 155.8132Q33.253124 154.90695 33.221874 153.09445L33.221874 151.65695Q33.221874 149.76633 33.8625 148.86008Q34.51875 147.9382 35.909374 147.9382Q37.284374 147.9382 37.940624 148.82883Q38.596874 149.70383 38.6125 151.54758L38.6125 152.95383ZM37.51875 151.46945Q37.51875 150.09445 37.128124 149.46945Q36.753124 148.82883 35.909374 148.82883Q35.08125 148.82883 34.690624 149.46945Q34.315624 150.09445 34.315624 151.39133L34.315624 153.1257Q34.315624 154.5007 34.70625 155.17258Q35.1125 155.82883 35.925 155.82883Q36.721874 155.82883 37.1125 155.20383Q37.503124 154.57883 37.51875 153.2507L37.51875 151.46945Z" fill-rule="nonzero"/><path fill="#757575" d="M22.815624 66.916664L21.7375 66.916664L21.7375 59.697914L19.55 60.49479L19.55 59.510414L22.659374 58.33854L22.815624 58.33854L22.815624 66.916664ZM26.753124 62.635414L27.190624 58.385414L31.565624 58.385414L31.565624 59.385414L28.1125 59.385414L27.846874 61.71354Q28.4875 61.33854 29.284374 61.33854Q30.440624 61.33854 31.128124 62.11979Q31.815624 62.885414 31.815624 64.197914Q31.815624 65.510414 31.096874 66.27604Q30.39375 67.041664 29.1125 67.041664Q27.9875 67.041664 27.26875 66.416664Q26.55 65.77604 26.45625 64.666664L27.471874 64.666664Q27.58125 65.40104 28.003124 65.77604Q28.425 66.15104 29.1125 66.15104Q29.8625 66.15104 30.3 65.635414Q30.7375 65.11979 30.7375 64.21354Q30.7375 63.354164 30.26875 62.83854Q29.8 62.322914 29.01875 62.322914Q28.315624 62.322914 27.909374 62.61979L27.628124 62.854164L26.753124 62.635414ZM38.6125 63.27604Q38.6125 65.18229 37.95625 66.11979Q37.315624 67.041664 35.925 67.041664Q34.565624 67.041664 33.909374 66.135414Q33.253124 65.229164 33.221874 63.416664L33.221874 61.979164Q33.221874 60.08854 33.8625 59.18229Q34.51875 58.260414 35.909374 58.260414Q37.284374 58.260414 37.940624 59.15104Q38.596874 60.02604 38.6125 61.86979L38.6125 63.27604ZM37.51875 61.791664Q37.51875 60.416664 37.128124 59.791664Q36.753124 59.15104 35.909374 59.15104Q35.08125 59.15104 34.690624 59.791664Q34.315624 60.416664 34.315624 61.71354L34.315624 63.447914Q34.315624 64.822914 34.70625 65.49479Q35.1125 66.15104 35.925 66.15104Q36.721874 66.15104 37.1125 65.52604Q37.503124 64.90104 37.51875 63.572914L37.51875 61.791664Z" fill-rule="nonzero"/><path fill="#757575" d="M39.6125 345.8094Q39.6125 347.71564 38.95625 348.65314Q38.315624 349.575 36.925 349.575Q35.565624 349.575 34.909374 348.66876Q34.253124 347.7625 34.221874 345.95L34.221874 344.5125Q34.221874 342.6219 34.8625 341.71564Q35.51875 340.79376 36.909374 340.79376Q38.284374 340.79376 38.940624 341.6844Q39.596874 342.5594 39.6125 344.40314L39.6125 345.8094ZM38.51875 344.325Q38.51875 342.95 38.128124 342.325Q37.753124 341.6844 36.909374 341.6844Q36.08125 341.6844 35.690624 342.325Q35.315624 342.95 35.315624 344.2469L35.315624 345.98126Q35.315624 347.35626 35.70625 348.02814Q36.1125 348.6844 36.925 348.6844Q37.721874 348.6844 38.1125 348.0594Q38.503124 347.4344 38.51875 346.10626L38.51875 344.325ZM41.39375 348.8875Q41.39375 348.60626 41.55 348.41876Q41.721874 348.23126 42.05 348.23126Q42.39375 348.23126 42.565624 348.41876Q42.7375 348.60626 42.7375 348.8875Q42.7375 349.15314 42.565624 349.34064Q42.39375 349.5125 42.05 349.5125Q41.721874 349.5125 41.55 349.34064Q41.39375 349.15314 41.39375 348.8875ZM49.6125 345.8094Q49.6125 347.71564 48.95625 348.65314Q48.315624 349.575 46.925 349.575Q45.565624 349.575 44.909374 348.66876Q44.253124 347.7625 44.221874 345.95L44.221874 344.5125Q44.221874 342.6219 44.8625 341.71564Q45.51875 340.79376 46.909374 340.79376Q48.284374 340.79376 48.940624 341.6844Q49.596874 342.5594 49.6125 344.40314L49.6125 345.8094ZM48.51875 344.325Q48.51875 342.95 48.128124 342.325Q47.753124 341.6844 46.909374 341.6844Q46.08125 341.6844 45.690624 342.325Q45.315624 342.95 45.315624 344.2469L45.315624 345.98126Q45.315624 347.35626 45.70625 348.02814Q46.1125 348.6844 46.925 348.6844Q47.721874 348.6844 48.1125 348.0594Q48.503124 347.4344 48.51875 346.10626L48.51875 344.325ZM56.6125 345.8094Q56.6125 347.71564 55.95625 348.65314Q55.315624 349.575 53.925 349.575Q52.565624 349.575 51.909374 348.66876Q51.253124 347.7625 51.221874 345.95L51.221874 344.5125Q51.221874 342.6219 51.8625 341.71564Q52.51875 340.79376 53.909374 340.79376Q55.284374 340.79376 55.940624 341.6844Q56.596874 342.5594 56.6125 344.40314L56.6125 345.8094ZM55.51875 344.325Q55.51875 342.95 55.128124 342.325Q54.753124 341.6844 53.909374 341.6844Q53.08125 341.6844 52.690624 342.325Q52.315624 342.95 52.315624 344.2469L52.315624 345.98126Q52.315624 347.35626 52.70625 348.02814Q53.1125 348.6844 53.925 348.6844Q54.721874 348.6844 55.1125 348.0594Q55.503124 347.4344 55.51875 346.10626L55.51875 344.325Z" fill-rule="nonzero"/><path fill="#757575" d="M71.13603 345.8094Q71.13603 347.71564 70.47978 348.65314Q69.83916 349.575 68.44853 349.575Q67.08916 349.575 66.43291 348.66876Q65.77666 347.7625 65.74541 345.95L65.74541 344.5125Q65.74541 342.6219 66.38603 341.71564Q67.04228 340.79376 68.43291 340.79376Q69.80791 340.79376 70.46416 341.6844Q71.12041 342.5594 71.13603 344.40314L71.13603 345.8094ZM70.04228 344.325Q70.04228 342.95 69.65166 342.325Q69.27666 341.6844 68.43291 341.6844Q67.60478 341.6844 67.21416 342.325Q66.83916 342.95 66.83916 344.2469L66.83916 345.98126Q66.83916 347.35626 67.22978 348.02814Q67.63603 348.6844 68.44853 348.6844Q69.24541 348.6844 69.63603 348.0594Q70.02666 347.4344 70.04228 346.10626L70.04228 344.325ZM72.91728 348.8875Q72.91728 348.60626 73.07353 348.41876Q73.24541 348.23126 73.57353 348.23126Q73.91728 348.23126 74.08916 348.41876Q74.26103 348.60626 74.26103 348.8875Q74.26103 349.15314 74.08916 349.34064Q73.91728 349.5125 73.57353 349.5125Q73.24541 349.5125 73.07353 349.34064Q72.91728 349.15314 72.91728 348.8875ZM81.13603 345.8094Q81.13603 347.71564 80.47978 348.65314Q79.83916 349.575 78.44853 349.575Q77.08916 349.575 76.43291 348.66876Q75.77666 347.7625 75.74541 345.95L75.74541 344.5125Q75.74541 342.6219 76.38603 341.71564Q77.04228 340.79376 78.43291 340.79376Q79.80791 340.79376 80.46416 341.6844Q81.12041 342.5594 81.13603 344.40314L81.13603 345.8094ZM80.04228 344.325Q80.04228 342.95 79.65166 342.325Q79.27666 341.6844 78.43291 341.6844Q77.60478 341.6844 77.21416 342.325Q76.83916 342.95 76.83916 344.2469L76.83916 345.98126Q76.83916 347.35626 77.22978 348.02814Q77.63603 348.6844 78.44853 348.6844Q79.24541 348.6844 79.63603 348.0594Q80.02666 347.4344 80.04228 346.10626L80.04228 344.325ZM87.04228 340.91876L87.04228 341.825L86.83916 341.825Q85.57353 341.85626 84.82353 342.59064Q84.07353 343.3094 83.94853 344.6219Q84.63603 343.85626 85.79228 343.85626Q86.90166 343.85626 87.57353 344.6375Q88.24541 345.41876 88.24541 346.66876Q88.24541 347.98126 87.52666 348.77814Q86.80791 349.575 85.58916 349.575Q84.37041 349.575 83.60478 348.6375Q82.85478 347.6844 82.85478 346.2L82.85478 345.79376Q82.85478 343.4344 83.85478 342.1844Q84.85478 340.9344 86.83916 340.91876L87.04228 340.91876ZM85.62041 344.7625Q85.05791 344.7625 84.58916 345.09064Q84.12041 345.41876 83.93291 345.9344L83.93291 346.325Q83.93291 347.3875 84.40166 348.02814Q84.88603 348.66876 85.58916 348.66876Q86.32353 348.66876 86.74541 348.1375Q87.16728 347.59064 87.16728 346.71564Q87.16728 345.84064 86.74541 345.3094Q86.32353 344.7625 85.62041 344.7625Z" fill-rule="nonzero"/><path fill="#757575" d="M102.65956 345.8094Q102.65956 347.71564 102.00331 348.65314Q101.362686 349.575 99.97206 349.575Q98.612686 349.575 97.956436 348.66876Q97.300186 347.7625 97.268936 345.95L97.268936 344.5125Q97.268936 342.6219 97.90956 341.71564Q98.56581 340.79376 99.956436 340.79376Q101.331436 340.79376 101.987686 341.6844Q102.643936 342.5594 102.65956 344.40314L102.65956 345.8094ZM101.56581 344.325Q101.56581 342.95 101.175186 342.325Q100.800186 341.6844 99.956436 341.6844Q99.12831 341.6844 98.737686 342.325Q98.362686 342.95 98.362686 344.2469L98.362686 345.98126Q98.362686 347.35626 98.75331 348.02814Q99.15956 348.6844 99.97206 348.6844Q100.768936 348.6844 101.15956 348.0594Q101.550186 347.4344 101.56581 346.10626L101.56581 344.325ZM104.44081 348.8875Q104.44081 348.60626 104.59706 348.41876Q104.768936 348.23126 105.09706 348.23126Q105.44081 348.23126 105.612686 348.41876Q105.78456 348.60626 105.78456 348.8875Q105.78456 349.15314 105.612686 349.34064Q105.44081 349.5125 105.09706 349.5125Q104.768936 349.5125 104.59706 349.34064Q104.44081 349.15314 104.44081 348.8875ZM110.862686 349.45L109.78456 349.45L109.78456 342.23126L107.59706 343.02814L107.59706 342.04376L110.706436 340.8719L110.862686 340.8719L110.862686 349.45ZM119.893936 349.45L114.300186 349.45L114.300186 348.66876L117.25331 345.3875Q117.90956 344.6375 118.15956 344.1844Q118.40956 343.71564 118.40956 343.21564Q118.40956 342.54376 118.00331 342.1219Q117.612686 341.6844 116.925186 341.6844Q116.12831 341.6844 115.675186 342.15314Q115.22206 342.60626 115.22206 343.4344L114.143936 343.4344Q114.143936 342.2469 114.893936 341.52814Q115.65956 340.79376 116.925186 340.79376Q118.12831 340.79376 118.81581 341.41876Q119.50331 342.04376 119.50331 343.09064Q119.50331 344.34064 117.893936 346.09064L115.612686 348.5594L119.893936 348.5594L119.893936 349.45Z" fill-rule="nonzero"/><path fill="#757575" d="M134.18309 345.8094Q134.18309 347.71564 133.52684 348.65314Q132.88622 349.575 131.49559 349.575Q130.13622 349.575 129.47997 348.66876Q128.82372 347.7625 128.79247 345.95L128.79247 344.5125Q128.79247 342.6219 129.43309 341.71564Q130.08934 340.79376 131.47997 340.79376Q132.85497 340.79376 133.51122 341.6844Q134.16747 342.5594 134.18309 344.40314L134.18309 345.8094ZM133.08934 344.325Q133.08934 342.95 132.69872 342.325Q132.32372 341.6844 131.47997 341.6844Q130.65184 341.6844 130.26122 342.325Q129.88622 342.95 129.88622 344.2469L129.88622 345.98126Q129.88622 347.35626 130.27684 348.02814Q130.68309 348.6844 131.49559 348.6844Q132.29247 348.6844 132.68309 348.0594Q133.07372 347.4344 133.08934 346.10626L133.08934 344.325ZM135.96434 348.8875Q135.96434 348.60626 136.12059 348.41876Q136.29247 348.23126 136.62059 348.23126Q136.96434 348.23126 137.13622 348.41876Q137.30809 348.60626 137.30809 348.8875Q137.30809 349.15314 137.13622 349.34064Q136.96434 349.5125 136.62059 349.5125Q136.29247 349.5125 136.12059 349.34064Q135.96434 349.15314 135.96434 348.8875ZM142.38622 349.45L141.30809 349.45L141.30809 342.23126L139.12059 343.02814L139.12059 342.04376L142.22997 340.8719L142.38622 340.8719L142.38622 349.45ZM151.01122 343.1375Q151.01122 343.77814 150.66747 344.27814Q150.32372 344.77814 149.76122 345.0594Q150.41747 345.34064 150.80809 345.90314Q151.19872 346.45 151.19872 347.15314Q151.19872 348.2469 150.44872 348.91876Q149.71434 349.575 148.49559 349.575Q147.26122 349.575 146.51122 348.91876Q145.77684 348.2469 145.77684 347.15314Q145.77684 346.45 146.15184 345.90314Q146.52684 345.34064 147.19872 345.0594Q146.63622 344.77814 146.30809 344.27814Q145.97997 343.77814 145.97997 343.1375Q145.97997 342.0594 146.66747 341.4344Q147.35497 340.79376 148.49559 340.79376Q149.62059 340.79376 150.30809 341.4344Q151.01122 342.0594 151.01122 343.1375ZM150.12059 347.1219Q150.12059 346.40314 149.66747 345.96564Q149.21434 345.5125 148.47997 345.5125Q147.74559 345.5125 147.29247 345.96564Q146.85497 346.40314 146.85497 347.1375Q146.85497 347.85626 147.29247 348.27814Q147.72997 348.6844 148.49559 348.6844Q149.24559 348.6844 149.68309 348.2625Q150.12059 347.84064 150.12059 347.1219ZM148.49559 341.6844Q147.85497 341.6844 147.44872 342.09064Q147.05809 342.48126 147.05809 343.16876Q147.05809 343.8094 147.44872 344.21564Q147.83934 344.6219 148.47997 344.6219Q149.13622 344.6219 149.52684 344.21564Q149.91747 343.8094 149.91747 343.16876Q149.91747 342.5125 149.51122 342.10626Q149.10497 341.6844 148.49559 341.6844Z" fill-rule="nonzero"/><path fill="#757575" d="M165.70662 345.8094Q165.70662 347.71564 165.05037 348.65314Q164.40974 349.575 163.01912 349.575Q161.65974 349.575 161.0035 348.66876Q160.34724 347.7625 160.316 345.95L160.316 344.5125Q160.316 342.6219 160.95662 341.71564Q161.61287 340.79376 163.0035 340.79376Q164.3785 340.79376 165.03474 341.6844Q165.691 342.5594 165.70662 344.40314L165.70662 345.8094ZM164.61287 344.325Q164.61287 342.95 164.22224 342.325Q163.84724 341.6844 163.0035 341.6844Q162.17537 341.6844 161.78474 342.325Q161.40974 342.95 161.40974 344.2469L161.40974 345.98126Q161.40974 347.35626 161.80037 348.02814Q162.20662 348.6844 163.01912 348.6844Q163.816 348.6844 164.20662 348.0594Q164.59724 347.4344 164.61287 346.10626L164.61287 344.325ZM167.48787 348.8875Q167.48787 348.60626 167.64412 348.41876Q167.816 348.23126 168.14412 348.23126Q168.48787 348.23126 168.65974 348.41876Q168.83162 348.60626 168.83162 348.8875Q168.83162 349.15314 168.65974 349.34064Q168.48787 349.5125 168.14412 349.5125Q167.816 349.5125 167.64412 349.34064Q167.48787 349.15314 167.48787 348.8875ZM175.941 349.45L170.34724 349.45L170.34724 348.66876L173.30037 345.3875Q173.95662 344.6375 174.20662 344.1844Q174.45662 343.71564 174.45662 343.21564Q174.45662 342.54376 174.05037 342.1219Q173.65974 341.6844 172.97224 341.6844Q172.17537 341.6844 171.72224 342.15314Q171.26912 342.60626 171.26912 343.4344L170.191 343.4344Q170.191 342.2469 170.941 341.52814Q171.70662 340.79376 172.97224 340.79376Q174.17537 340.79376 174.86287 341.41876Q175.55037 342.04376 175.55037 343.09064Q175.55037 344.34064 173.941 346.09064L171.65974 348.5594L175.941 348.5594L175.941 349.45ZM181.92537 346.59064L183.11287 346.59064L183.11287 347.46564L181.92537 347.46564L181.92537 349.45L180.84724 349.45L180.84724 347.46564L176.95662 347.46564L176.95662 346.825L180.76912 340.91876L181.92537 340.91876L181.92537 346.59064ZM178.191 346.59064L180.84724 346.59064L180.84724 342.40314L180.70662 342.6375L178.191 346.59064Z" fill-rule="nonzero"/><path fill="#757575" d="M197.23015 345.8094Q197.23015 347.71564 196.5739 348.65314Q195.93327 349.575 194.54265 349.575Q193.18327 349.575 192.52702 348.66876Q191.87077 347.7625 191.83952 345.95L191.83952 344.5125Q191.83952 342.6219 192.48015 341.71564Q193.1364 340.79376 194.52702 340.79376Q195.90202 340.79376 196.55827 341.6844Q197.21452 342.5594 197.23015 344.40314L197.23015 345.8094ZM196.1364 344.325Q196.1364 342.95 195.74577 342.325Q195.37077 341.6844 194.52702 341.6844Q193.6989 341.6844 193.30827 342.325Q192.93327 342.95 192.93327 344.2469L192.93327 345.98126Q192.93327 347.35626 193.3239 348.02814Q193.73015 348.6844 194.54265 348.6844Q195.33952 348.6844 195.73015 348.0594Q196.12077 347.4344 196.1364 346.10626L196.1364 344.325ZM199.0114 348.8875Q199.0114 348.60626 199.16765 348.41876Q199.33952 348.23126 199.66765 348.23126Q200.0114 348.23126 200.18327 348.41876Q200.35515 348.60626 200.35515 348.8875Q200.35515 349.15314 200.18327 349.34064Q200.0114 349.5125 199.66765 349.5125Q199.33952 349.5125 199.16765 349.34064Q199.0114 349.15314 199.0114 348.8875ZM203.4489 344.65314L204.2614 344.65314Q205.04265 344.6375 205.48015 344.2469Q205.91765 343.85626 205.91765 343.1844Q205.91765 341.6844 204.41765 341.6844Q203.71452 341.6844 203.29265 342.09064Q202.8864 342.4969 202.8864 343.15314L201.79265 343.15314Q201.79265 342.1375 202.52702 341.46564Q203.27702 340.79376 204.41765 340.79376Q205.62077 340.79376 206.30827 341.4344Q206.99577 342.075 206.99577 343.21564Q206.99577 343.77814 206.6364 344.29376Q206.27702 344.8094 205.65202 345.075Q206.35515 345.29376 206.73015 345.8094Q207.12077 346.325 207.12077 347.075Q207.12077 348.21564 206.37077 348.90314Q205.62077 349.575 204.41765 349.575Q203.23015 349.575 202.46452 348.91876Q201.71452 348.2625 201.71452 347.2L202.80827 347.2Q202.80827 347.8719 203.24577 348.27814Q203.68327 348.6844 204.43327 348.6844Q205.21452 348.6844 205.62077 348.27814Q206.04265 347.85626 206.04265 347.09064Q206.04265 346.35626 205.58952 345.96564Q205.1364 345.5594 204.2614 345.54376L203.4489 345.54376L203.4489 344.65314ZM214.23015 345.8094Q214.23015 347.71564 213.5739 348.65314Q212.93327 349.575 211.54265 349.575Q210.18327 349.575 209.52702 348.66876Q208.87077 347.7625 208.83952 345.95L208.83952 344.5125Q208.83952 342.6219 209.48015 341.71564Q210.1364 340.79376 211.52702 340.79376Q212.90202 340.79376 213.55827 341.6844Q214.21452 342.5594 214.23015 344.40314L214.23015 345.8094ZM213.1364 344.325Q213.1364 342.95 212.74577 342.325Q212.37077 341.6844 211.52702 341.6844Q210.6989 341.6844 210.30827 342.325Q209.93327 342.95 209.93327 344.2469L209.93327 345.98126Q209.93327 347.35626 210.3239 348.02814Q210.73015 348.6844 211.54265 348.6844Q212.33952 348.6844 212.73015 348.0594Q213.12077 347.4344 213.1364 346.10626L213.1364 344.325Z" fill-rule="nonzero"/><path fill="#757575" d="M228.75368 345.8094Q228.75368 347.71564 228.09743 348.65314Q227.4568 349.575 226.06618 349.575Q224.7068 349.575 224.05055 348.66876Q223.3943 347.7625 223.36305 345.95L223.36305 344.5125Q223.36305 342.6219 224.00368 341.71564Q224.65993 340.79376 226.05055 340.79376Q227.42555 340.79376 228.0818 341.6844Q228.73805 342.5594 228.75368 344.40314L228.75368 345.8094ZM227.65993 344.325Q227.65993 342.95 227.2693 342.325Q226.8943 341.6844 226.05055 341.6844Q225.22243 341.6844 224.8318 342.325Q224.4568 342.95 224.4568 344.2469L224.4568 345.98126Q224.4568 347.35626 224.84743 348.02814Q225.25368 348.6844 226.06618 348.6844Q226.86305 348.6844 227.25368 348.0594Q227.6443 347.4344 227.65993 346.10626L227.65993 344.325ZM230.53493 348.8875Q230.53493 348.60626 230.69118 348.41876Q230.86305 348.23126 231.19118 348.23126Q231.53493 348.23126 231.7068 348.41876Q231.87868 348.60626 231.87868 348.8875Q231.87868 349.15314 231.7068 349.34064Q231.53493 349.5125 231.19118 349.5125Q230.86305 349.5125 230.69118 349.34064Q230.53493 349.15314 230.53493 348.8875ZM234.97243 344.65314L235.78493 344.65314Q236.56618 344.6375 237.00368 344.2469Q237.44118 343.85626 237.44118 343.1844Q237.44118 341.6844 235.94118 341.6844Q235.23805 341.6844 234.81618 342.09064Q234.40993 342.4969 234.40993 343.15314L233.31618 343.15314Q233.31618 342.1375 234.05055 341.46564Q234.80055 340.79376 235.94118 340.79376Q237.1443 340.79376 237.8318 341.4344Q238.5193 342.075 238.5193 343.21564Q238.5193 343.77814 238.15993 344.29376Q237.80055 344.8094 237.17555 345.075Q237.87868 345.29376 238.25368 345.8094Q238.6443 346.325 238.6443 347.075Q238.6443 348.21564 237.8943 348.90314Q237.1443 349.575 235.94118 349.575Q234.75368 349.575 233.98805 348.91876Q233.23805 348.2625 233.23805 347.2L234.3318 347.2Q234.3318 347.8719 234.7693 348.27814Q235.2068 348.6844 235.9568 348.6844Q236.73805 348.6844 237.1443 348.27814Q237.56618 347.85626 237.56618 347.09064Q237.56618 346.35626 237.11305 345.96564Q236.65993 345.5594 235.78493 345.54376L234.97243 345.54376L234.97243 344.65314ZM244.65993 340.91876L244.65993 341.825L244.4568 341.825Q243.19118 341.85626 242.44118 342.59064Q241.69118 343.3094 241.56618 344.6219Q242.25368 343.85626 243.40993 343.85626Q244.5193 343.85626 245.19118 344.6375Q245.86305 345.41876 245.86305 346.66876Q245.86305 347.98126 245.1443 348.77814Q244.42555 349.575 243.2068 349.575Q241.98805 349.575 241.22243 348.6375Q240.47243 347.6844 240.47243 346.2L240.47243 345.79376Q240.47243 343.4344 241.47243 342.1844Q242.47243 340.9344 244.4568 340.91876L244.65993 340.91876ZM243.23805 344.7625Q242.67555 344.7625 242.2068 345.09064Q241.73805 345.41876 241.55055 345.9344L241.55055 346.325Q241.55055 347.3875 242.0193 348.02814Q242.50368 348.66876 243.2068 348.66876Q243.94118 348.66876 244.36305 348.1375Q244.78493 347.59064 244.78493 346.71564Q244.78493 345.84064 244.36305 345.3094Q243.94118 344.7625 243.23805 344.7625Z" fill-rule="nonzero"/><path fill="#757575" d="M260.27722 345.8094Q260.27722 347.71564 259.62097 348.65314Q258.98035 349.575 257.58972 349.575Q256.23035 349.575 255.57408 348.66876Q254.91783 347.7625 254.88658 345.95L254.88658 344.5125Q254.88658 342.6219 255.5272 341.71564Q256.18347 340.79376 257.5741 340.79376Q258.9491 340.79376 259.60535 341.6844Q260.2616 342.5594 260.27722 344.40314L260.27722 345.8094ZM259.18347 344.325Q259.18347 342.95 258.79285 342.325Q258.41785 341.6844 257.5741 341.6844Q256.74597 341.6844 256.35535 342.325Q255.98033 342.95 255.98033 344.2469L255.98033 345.98126Q255.98033 347.35626 256.37097 348.02814Q256.77722 348.6844 257.58972 348.6844Q258.3866 348.6844 258.77722 348.0594Q259.16785 347.4344 259.18347 346.10626L259.18347 344.325ZM262.05847 348.8875Q262.05847 348.60626 262.21472 348.41876Q262.3866 348.23126 262.71472 348.23126Q263.05847 348.23126 263.23035 348.41876Q263.40222 348.60626 263.40222 348.8875Q263.40222 349.15314 263.23035 349.34064Q263.05847 349.5125 262.71472 349.5125Q262.3866 349.5125 262.21472 349.34064Q262.05847 349.15314 262.05847 348.8875ZM269.49597 346.59064L270.68347 346.59064L270.68347 347.46564L269.49597 347.46564L269.49597 349.45L268.41785 349.45L268.41785 347.46564L264.52722 347.46564L264.52722 346.825L268.33972 340.91876L269.49597 340.91876L269.49597 346.59064ZM265.7616 346.59064L268.41785 346.59064L268.41785 342.40314L268.27722 342.6375L265.7616 346.59064ZM277.5116 349.45L271.91785 349.45L271.91785 348.66876L274.87097 345.3875Q275.52722 344.6375 275.77722 344.1844Q276.02722 343.71564 276.02722 343.21564Q276.02722 342.54376 275.62097 342.1219Q275.23035 341.6844 274.54285 341.6844Q273.74597 341.6844 273.29285 342.15314Q272.83972 342.60626 272.83972 343.4344L271.7616 343.4344Q271.7616 342.2469 272.5116 341.52814Q273.27722 340.79376 274.54285 340.79376Q275.74597 340.79376 276.43347 341.41876Q277.12097 342.04376 277.12097 343.09064Q277.12097 344.34064 275.5116 346.09064L273.23035 348.5594L277.5116 348.5594L277.5116 349.45Z" fill-rule="nonzero"/><path fill="#757575" d="M291.80072 345.8094Q291.80072 347.71564 291.14447 348.65314Q290.50385 349.575 289.11322 349.575Q287.75385 349.575 287.0976 348.66876Q286.44135 347.7625 286.4101 345.95L286.4101 344.5125Q286.4101 342.6219 287.05072 341.71564Q287.70697 340.79376 289.0976 340.79376Q290.4726 340.79376 291.12885 341.6844Q291.7851 342.5594 291.80072 344.40314L291.80072 345.8094ZM290.70697 344.325Q290.70697 342.95 290.31635 342.325Q289.94135 341.6844 289.0976 341.6844Q288.26947 341.6844 287.87885 342.325Q287.50385 342.95 287.50385 344.2469L287.50385 345.98126Q287.50385 347.35626 287.89447 348.02814Q288.30072 348.6844 289.11322 348.6844Q289.9101 348.6844 290.30072 348.0594Q290.69135 347.4344 290.70697 346.10626L290.70697 344.325ZM293.58197 348.8875Q293.58197 348.60626 293.73822 348.41876Q293.9101 348.23126 294.23822 348.23126Q294.58197 348.23126 294.75385 348.41876Q294.92572 348.60626 294.92572 348.8875Q294.92572 349.15314 294.75385 349.34064Q294.58197 349.5125 294.23822 349.5125Q293.9101 349.5125 293.73822 349.34064Q293.58197 349.15314 293.58197 348.8875ZM301.01947 346.59064L302.20697 346.59064L302.20697 347.46564L301.01947 347.46564L301.01947 349.45L299.94135 349.45L299.94135 347.46564L296.05072 347.46564L296.05072 346.825L299.86322 340.91876L301.01947 340.91876L301.01947 346.59064ZM297.2851 346.59064L299.94135 346.59064L299.94135 342.40314L299.80072 342.6375L297.2851 346.59064ZM308.62885 343.1375Q308.62885 343.77814 308.2851 344.27814Q307.94135 344.77814 307.37885 345.0594Q308.0351 345.34064 308.42572 345.90314Q308.81635 346.45 308.81635 347.15314Q308.81635 348.2469 308.06635 348.91876Q307.33197 349.575 306.11322 349.575Q304.87885 349.575 304.12885 348.91876Q303.39447 348.2469 303.39447 347.15314Q303.39447 346.45 303.76947 345.90314Q304.14447 345.34064 304.81635 345.0594Q304.25385 344.77814 303.92572 344.27814Q303.5976 343.77814 303.5976 343.1375Q303.5976 342.0594 304.2851 341.4344Q304.9726 340.79376 306.11322 340.79376Q307.23822 340.79376 307.92572 341.4344Q308.62885 342.0594 308.62885 343.1375ZM307.73822 347.1219Q307.73822 346.40314 307.2851 345.96564Q306.83197 345.5125 306.0976 345.5125Q305.36322 345.5125 304.9101 345.96564Q304.4726 346.40314 304.4726 347.1375Q304.4726 347.85626 304.9101 348.27814Q305.3476 348.6844 306.11322 348.6844Q306.86322 348.6844 307.30072 348.2625Q307.73822 347.84064 307.73822 347.1219ZM306.11322 341.6844Q305.4726 341.6844 305.06635 342.09064Q304.67572 342.48126 304.67572 343.16876Q304.67572 343.8094 305.06635 344.21564Q305.45697 344.6219 306.0976 344.6219Q306.75385 344.6219 307.14447 344.21564Q307.5351 343.8094 307.5351 343.16876Q307.5351 342.5125 307.12885 342.10626Q306.7226 341.6844 306.11322 341.6844Z" fill-rule="nonzero"/><path fill="#757575" d="M323.32428 345.8094Q323.32428 347.71564 322.66803 348.65314Q322.0274 349.575 320.63678 349.575Q319.2774 349.575 318.62115 348.66876Q317.9649 347.7625 317.93365 345.95L317.93365 344.5125Q317.93365 342.6219 318.57428 341.71564Q319.23053 340.79376 320.62115 340.79376Q321.99615 340.79376 322.6524 341.6844Q323.30865 342.5594 323.32428 344.40314L323.32428 345.8094ZM322.23053 344.325Q322.23053 342.95 321.8399 342.325Q321.4649 341.6844 320.62115 341.6844Q319.79303 341.6844 319.4024 342.325Q319.0274 342.95 319.0274 344.2469L319.0274 345.98126Q319.0274 347.35626 319.41803 348.02814Q319.82428 348.6844 320.63678 348.6844Q321.43365 348.6844 321.82428 348.0594Q322.2149 347.4344 322.23053 346.10626L322.23053 344.325ZM325.10553 348.8875Q325.10553 348.60626 325.26178 348.41876Q325.43365 348.23126 325.76178 348.23126Q326.10553 348.23126 326.2774 348.41876Q326.44928 348.60626 326.44928 348.8875Q326.44928 349.15314 326.2774 349.34064Q326.10553 349.5125 325.76178 349.5125Q325.43365 349.5125 325.26178 349.34064Q325.10553 349.15314 325.10553 348.8875ZM328.4649 345.16876L328.9024 340.91876L333.2774 340.91876L333.2774 341.91876L329.82428 341.91876L329.55865 344.2469Q330.19928 343.8719 330.99615 343.8719Q332.1524 343.8719 332.8399 344.65314Q333.5274 345.41876 333.5274 346.73126Q333.5274 348.04376 332.80865 348.8094Q332.10553 349.575 330.82428 349.575Q329.69928 349.575 328.98053 348.95Q328.26178 348.3094 328.16803 347.2L329.18365 347.2Q329.29303 347.9344 329.7149 348.3094Q330.13678 348.6844 330.82428 348.6844Q331.57428 348.6844 332.01178 348.16876Q332.44928 347.65314 332.44928 346.7469Q332.44928 345.8875 331.98053 345.3719Q331.51178 344.85626 330.73053 344.85626Q330.0274 344.85626 329.62115 345.15314L329.3399 345.3875L328.4649 345.16876ZM336.54303 344.65314L337.35553 344.65314Q338.13678 344.6375 338.57428 344.2469Q339.01178 343.85626 339.01178 343.1844Q339.01178 341.6844 337.51178 341.6844Q336.80865 341.6844 336.38678 342.09064Q335.98053 342.4969 335.98053 343.15314L334.88678 343.15314Q334.88678 342.1375 335.62115 341.46564Q336.37115 340.79376 337.51178 340.79376Q338.7149 340.79376 339.4024 341.4344Q340.0899 342.075 340.0899 343.21564Q340.0899 343.77814 339.73053 344.29376Q339.37115 344.8094 338.74615 345.075Q339.44928 345.29376 339.82428 345.8094Q340.2149 346.325 340.2149 347.075Q340.2149 348.21564 339.4649 348.90314Q338.7149 349.575 337.51178 349.575Q336.32428 349.575 335.55865 348.91876Q334.80865 348.2625 334.80865 347.2L335.9024 347.2Q335.9024 347.8719 336.3399 348.27814Q336.7774 348.6844 337.5274 348.6844Q338.30865 348.6844 338.7149 348.27814Q339.13678 347.85626 339.13678 347.09064Q339.13678 346.35626 338.68365 345.96564Q338.23053 345.5594 337.35553 345.54376L336.54303 345.54376L336.54303 344.65314Z" fill-rule="nonzero"/><path fill="#757575" d="M354.8478 345.8094Q354.8478 347.71564 354.19156 348.65314Q353.55093 349.575 352.1603 349.575Q350.80093 349.575 350.14468 348.66876Q349.48843 347.7625 349.45718 345.95L349.45718 344.5125Q349.45718 342.6219 350.0978 341.71564Q350.75406 340.79376 352.14468 340.79376Q353.51968 340.79376 354.17593 341.6844Q354.83218 342.5594 354.8478 344.40314L354.8478 345.8094ZM353.75406 344.325Q353.75406 342.95 353.36343 342.325Q352.98843 341.6844 352.14468 341.6844Q351.31656 341.6844 350.92593 342.325Q350.55093 342.95 350.55093 344.2469L350.55093 345.98126Q350.55093 347.35626 350.94156 348.02814Q351.3478 348.6844 352.1603 348.6844Q352.95718 348.6844 353.3478 348.0594Q353.73843 347.4344 353.75406 346.10626L353.75406 344.325ZM356.62906 348.8875Q356.62906 348.60626 356.7853 348.41876Q356.95718 348.23126 357.2853 348.23126Q357.62906 348.23126 357.80093 348.41876Q357.9728 348.60626 357.9728 348.8875Q357.9728 349.15314 357.80093 349.34064Q357.62906 349.5125 357.2853 349.5125Q356.95718 349.5125 356.7853 349.34064Q356.62906 349.15314 356.62906 348.8875ZM359.98843 345.16876L360.42593 340.91876L364.80093 340.91876L364.80093 341.91876L361.3478 341.91876L361.08218 344.2469Q361.7228 343.8719 362.51968 343.8719Q363.67593 343.8719 364.36343 344.65314Q365.05093 345.41876 365.05093 346.73126Q365.05093 348.04376 364.33218 348.8094Q363.62906 349.575 362.3478 349.575Q361.2228 349.575 360.50406 348.95Q359.7853 348.3094 359.69156 347.2L360.70718 347.2Q360.81656 347.9344 361.23843 348.3094Q361.6603 348.6844 362.3478 348.6844Q363.0978 348.6844 363.5353 348.16876Q363.9728 347.65314 363.9728 346.7469Q363.9728 345.8875 363.50406 345.3719Q363.0353 344.85626 362.25406 344.85626Q361.55093 344.85626 361.14468 345.15314L360.86343 345.3875L359.98843 345.16876ZM370.64468 345.7Q370.31656 346.10626 369.83218 346.35626Q369.36343 346.59064 368.80093 346.59064Q368.06656 346.59064 367.51968 346.23126Q366.9728 345.8719 366.67593 345.21564Q366.37906 344.54376 366.37906 343.7469Q366.37906 342.90314 366.69156 342.21564Q367.01968 341.52814 367.61343 341.16876Q368.2228 340.79376 369.01968 340.79376Q370.2853 340.79376 371.00406 341.7469Q371.73843 342.7 371.73843 344.325L371.73843 344.6375Q371.73843 347.1375 370.75406 348.27814Q369.76968 349.41876 367.7853 349.45L367.56656 349.45L367.56656 348.54376L367.80093 348.54376Q369.14468 348.5125 369.86343 347.84064Q370.58218 347.16876 370.64468 345.7ZM368.9728 345.7Q369.51968 345.7 369.9728 345.3719Q370.44156 345.02814 370.6603 344.54376L370.6603 344.10626Q370.6603 343.04376 370.19156 342.3719Q369.7228 341.7 369.01968 341.7Q368.30093 341.7 367.86343 342.2469Q367.44156 342.79376 367.44156 343.7Q367.44156 344.575 367.8478 345.1375Q368.26968 345.7 368.9728 345.7Z" fill-rule="nonzero"/><path fill="#757575" d="M386.37134 345.8094Q386.37134 347.71564 385.7151 348.65314Q385.07446 349.575 383.68384 349.575Q382.32446 349.575 381.6682 348.66876Q381.01196 347.7625 380.9807 345.95L380.9807 344.5125Q380.9807 342.6219 381.62134 341.71564Q382.2776 340.79376 383.6682 340.79376Q385.0432 340.79376 385.69946 341.6844Q386.3557 342.5594 386.37134 344.40314L386.37134 345.8094ZM385.2776 344.325Q385.2776 342.95 384.88696 342.325Q384.51196 341.6844 383.6682 341.6844Q382.8401 341.6844 382.44946 342.325Q382.07446 342.95 382.07446 344.2469L382.07446 345.98126Q382.07446 347.35626 382.4651 348.02814Q382.87134 348.6844 383.68384 348.6844Q384.4807 348.6844 384.87134 348.0594Q385.26196 347.4344 385.2776 346.10626L385.2776 344.325ZM388.1526 348.8875Q388.1526 348.60626 388.30884 348.41876Q388.4807 348.23126 388.80884 348.23126Q389.1526 348.23126 389.32446 348.41876Q389.49634 348.60626 389.49634 348.8875Q389.49634 349.15314 389.32446 349.34064Q389.1526 349.5125 388.80884 349.5125Q388.4807 349.5125 388.30884 349.34064Q388.1526 349.15314 388.1526 348.8875ZM395.2776 340.91876L395.2776 341.825L395.07446 341.825Q393.80884 341.85626 393.05884 342.59064Q392.30884 343.3094 392.18384 344.6219Q392.87134 343.85626 394.0276 343.85626Q395.13696 343.85626 395.80884 344.6375Q396.4807 345.41876 396.4807 346.66876Q396.4807 347.98126 395.76196 348.77814Q395.0432 349.575 393.82446 349.575Q392.6057 349.575 391.8401 348.6375Q391.0901 347.6844 391.0901 346.2L391.0901 345.79376Q391.0901 343.4344 392.0901 342.1844Q393.0901 340.9344 395.07446 340.91876L395.2776 340.91876ZM393.8557 344.7625Q393.2932 344.7625 392.82446 345.09064Q392.3557 345.41876 392.1682 345.9344L392.1682 346.325Q392.1682 347.3875 392.63696 348.02814Q393.12134 348.66876 393.82446 348.66876Q394.55884 348.66876 394.9807 348.1375Q395.4026 347.59064 395.4026 346.71564Q395.4026 345.84064 394.9807 345.3094Q394.55884 344.7625 393.8557 344.7625ZM398.51196 345.16876L398.94946 340.91876L403.32446 340.91876L403.32446 341.91876L399.87134 341.91876L399.6057 344.2469Q400.24634 343.8719 401.0432 343.8719Q402.19946 343.8719 402.88696 344.65314Q403.57446 345.41876 403.57446 346.73126Q403.57446 348.04376 402.8557 348.8094Q402.1526 349.575 400.87134 349.575Q399.74634 349.575 399.0276 348.95Q398.30884 348.3094 398.2151 347.2L399.2307 347.2Q399.3401 347.9344 399.76196 348.3094Q400.18384 348.6844 400.87134 348.6844Q401.62134 348.6844 402.05884 348.16876Q402.49634 347.65314 402.49634 346.7469Q402.49634 345.8875 402.0276 345.3719Q401.55884 344.85626 400.7776 344.85626Q400.07446 344.85626 399.6682 345.15314L399.38696 345.3875L398.51196 345.16876Z" fill-rule="nonzero"/><path fill="#757575" d="M417.89487 345.8094Q417.89487 347.71564 417.23862 348.65314Q416.598 349.575 415.20737 349.575Q413.848 349.575 413.19174 348.66876Q412.5355 347.7625 412.50424 345.95L412.50424 344.5125Q412.50424 342.6219 413.14487 341.71564Q413.80112 340.79376 415.19174 340.79376Q416.56674 340.79376 417.223 341.6844Q417.87924 342.5594 417.89487 344.40314L417.89487 345.8094ZM416.80112 344.325Q416.80112 342.95 416.4105 342.325Q416.0355 341.6844 415.19174 341.6844Q414.36362 341.6844 413.973 342.325Q413.598 342.95 413.598 344.2469L413.598 345.98126Q413.598 347.35626 413.98862 348.02814Q414.39487 348.6844 415.20737 348.6844Q416.00424 348.6844 416.39487 348.0594Q416.7855 347.4344 416.80112 346.10626L416.80112 344.325ZM419.67612 348.8875Q419.67612 348.60626 419.83237 348.41876Q420.00424 348.23126 420.33237 348.23126Q420.67612 348.23126 420.848 348.41876Q421.01987 348.60626 421.01987 348.8875Q421.01987 349.15314 420.848 349.34064Q420.67612 349.5125 420.33237 349.5125Q420.00424 349.5125 419.83237 349.34064Q419.67612 349.15314 419.67612 348.8875ZM428.05112 341.52814L424.51987 349.45L423.37924 349.45L426.89487 341.8094L422.2855 341.8094L422.2855 340.91876L428.05112 340.91876L428.05112 341.52814ZM433.098 349.45L432.01987 349.45L432.01987 342.23126L429.83237 343.02814L429.83237 342.04376L432.94174 340.8719L433.098 340.8719L433.098 349.45Z" fill-rule="nonzero"/><path fill="#757575" d="M449.4184 345.8094Q449.4184 347.71564 448.76215 348.65314Q448.12152 349.575 446.7309 349.575Q445.37152 349.575 444.71527 348.66876Q444.05902 347.7625 444.02777 345.95L444.02777 344.5125Q444.02777 342.6219 444.6684 341.71564Q445.32465 340.79376 446.71527 340.79376Q448.09027 340.79376 448.74652 341.6844Q449.40277 342.5594 449.4184 344.40314L449.4184 345.8094ZM448.32465 344.325Q448.32465 342.95 447.93402 342.325Q447.55902 341.6844 446.71527 341.6844Q445.88715 341.6844 445.49652 342.325Q445.12152 342.95 445.12152 344.2469L445.12152 345.98126Q445.12152 347.35626 445.51215 348.02814Q445.9184 348.6844 446.7309 348.6844Q447.52777 348.6844 447.9184 348.0594Q448.30902 347.4344 448.32465 346.10626L448.32465 344.325ZM451.19965 348.8875Q451.19965 348.60626 451.3559 348.41876Q451.52777 348.23126 451.8559 348.23126Q452.19965 348.23126 452.37152 348.41876Q452.5434 348.60626 452.5434 348.8875Q452.5434 349.15314 452.37152 349.34064Q452.19965 349.5125 451.8559 349.5125Q451.52777 349.5125 451.3559 349.34064Q451.19965 349.15314 451.19965 348.8875ZM459.57465 341.52814L456.0434 349.45L454.90277 349.45L458.4184 341.8094L453.80902 341.8094L453.80902 340.91876L459.57465 340.91876L459.57465 341.52814ZM466.57465 341.52814L463.0434 349.45L461.90277 349.45L465.4184 341.8094L460.80902 341.8094L460.80902 340.91876L466.57465 340.91876L466.57465 341.52814Z" fill-rule="nonzero"/><path fill="#757575" d="M480.94193 345.8094Q480.94193 347.71564 480.28568 348.65314Q479.64505 349.575 478.25443 349.575Q476.89505 349.575 476.2388 348.66876Q475.58255 347.7625 475.5513 345.95L475.5513 344.5125Q475.5513 342.6219 476.19193 341.71564Q476.84818 340.79376 478.2388 340.79376Q479.6138 340.79376 480.27005 341.6844Q480.9263 342.5594 480.94193 344.40314L480.94193 345.8094ZM479.84818 344.325Q479.84818 342.95 479.45755 342.325Q479.08255 341.6844 478.2388 341.6844Q477.41068 341.6844 477.02005 342.325Q476.64505 342.95 476.64505 344.2469L476.64505 345.98126Q476.64505 347.35626 477.03568 348.02814Q477.44193 348.6844 478.25443 348.6844Q479.0513 348.6844 479.44193 348.0594Q479.83255 347.4344 479.84818 346.10626L479.84818 344.325ZM482.72318 348.8875Q482.72318 348.60626 482.87943 348.41876Q483.0513 348.23126 483.37943 348.23126Q483.72318 348.23126 483.89505 348.41876Q484.06693 348.60626 484.06693 348.8875Q484.06693 349.15314 483.89505 349.34064Q483.72318 349.5125 483.37943 349.5125Q483.0513 349.5125 482.87943 349.34064Q482.72318 349.15314 482.72318 348.8875ZM490.77005 343.1375Q490.77005 343.77814 490.4263 344.27814Q490.08255 344.77814 489.52005 345.0594Q490.1763 345.34064 490.56693 345.90314Q490.95755 346.45 490.95755 347.15314Q490.95755 348.2469 490.20755 348.91876Q489.47318 349.575 488.25443 349.575Q487.02005 349.575 486.27005 348.91876Q485.53568 348.2469 485.53568 347.15314Q485.53568 346.45 485.91068 345.90314Q486.28568 345.34064 486.95755 345.0594Q486.39505 344.77814 486.06693 344.27814Q485.7388 343.77814 485.7388 343.1375Q485.7388 342.0594 486.4263 341.4344Q487.1138 340.79376 488.25443 340.79376Q489.37943 340.79376 490.06693 341.4344Q490.77005 342.0594 490.77005 343.1375ZM489.87943 347.1219Q489.87943 346.40314 489.4263 345.96564Q488.97318 345.5125 488.2388 345.5125Q487.50443 345.5125 487.0513 345.96564Q486.6138 346.40314 486.6138 347.1375Q486.6138 347.85626 487.0513 348.27814Q487.4888 348.6844 488.25443 348.6844Q489.00443 348.6844 489.44193 348.2625Q489.87943 347.84064 489.87943 347.1219ZM488.25443 341.6844Q487.6138 341.6844 487.20755 342.09064Q486.81693 342.48126 486.81693 343.16876Q486.81693 343.8094 487.20755 344.21564Q487.59818 344.6219 488.2388 344.6219Q488.89505 344.6219 489.28568 344.21564Q489.6763 343.8094 489.6763 343.16876Q489.6763 342.5125 489.27005 342.10626Q488.8638 341.6844 488.25443 341.6844ZM494.16068 344.65314L494.97318 344.65314Q495.75443 344.6375 496.19193 344.2469Q496.62943 343.85626 496.62943 343.1844Q496.62943 341.6844 495.12943 341.6844Q494.4263 341.6844 494.00443 342.09064Q493.59818 342.4969 493.59818 343.15314L492.50443 343.15314Q492.50443 342.1375 493.2388 341.46564Q493.9888 340.79376 495.12943 340.79376Q496.33255 340.79376 497.02005 341.4344Q497.70755 342.075 497.70755 343.21564Q497.70755 343.77814 497.34818 344.29376Q496.9888 344.8094 496.3638 345.075Q497.06693 345.29376 497.44193 345.8094Q497.83255 346.325 497.83255 347.075Q497.83255 348.21564 497.08255 348.90314Q496.33255 349.575 495.12943 349.575Q493.94193 349.575 493.1763 348.91876Q492.4263 348.2625 492.4263 347.2L493.52005 347.2Q493.52005 347.8719 493.95755 348.27814Q494.39505 348.6844 495.14505 348.6844Q495.9263 348.6844 496.33255 348.27814Q496.75443 347.85626 496.75443 347.09064Q496.75443 346.35626 496.3013 345.96564Q495.84818 345.5594 494.97318 345.54376L494.16068 345.54376L494.16068 344.65314Z" fill-rule="nonzero"/><path fill="#757575" d="M512.46545 345.8094Q512.46545 347.71564 511.8092 348.65314Q511.16858 349.575 509.77795 349.575Q508.41858 349.575 507.76233 348.66876Q507.10608 347.7625 507.07483 345.95L507.07483 344.5125Q507.07483 342.6219 507.71545 341.71564Q508.3717 340.79376 509.76233 340.79376Q511.13733 340.79376 511.79358 341.6844Q512.4498 342.5594 512.46545 344.40314L512.46545 345.8094ZM511.3717 344.325Q511.3717 342.95 510.98108 342.325Q510.60608 341.6844 509.76233 341.6844Q508.9342 341.6844 508.54358 342.325Q508.16858 342.95 508.16858 344.2469L508.16858 345.98126Q508.16858 347.35626 508.5592 348.02814Q508.96545 348.6844 509.77795 348.6844Q510.57483 348.6844 510.96545 348.0594Q511.35608 347.4344 511.3717 346.10626L511.3717 344.325ZM514.2467 348.8875Q514.2467 348.60626 514.40295 348.41876Q514.5748 348.23126 514.90295 348.23126Q515.2467 348.23126 515.4186 348.41876Q515.59045 348.60626 515.59045 348.8875Q515.59045 349.15314 515.4186 349.34064Q515.2467 349.5125 514.90295 349.5125Q514.5748 349.5125 514.40295 349.34064Q514.2467 349.15314 514.2467 348.8875ZM522.2936 343.1375Q522.2936 343.77814 521.9498 344.27814Q521.6061 344.77814 521.0436 345.0594Q521.6998 345.34064 522.09045 345.90314Q522.4811 346.45 522.4811 347.15314Q522.4811 348.2469 521.7311 348.91876Q520.9967 349.575 519.77795 349.575Q518.5436 349.575 517.7936 348.91876Q517.0592 348.2469 517.0592 347.15314Q517.0592 346.45 517.4342 345.90314Q517.8092 345.34064 518.4811 345.0594Q517.9186 344.77814 517.59045 344.27814Q517.2623 343.77814 517.2623 343.1375Q517.2623 342.0594 517.9498 341.4344Q518.6373 340.79376 519.77795 340.79376Q520.90295 340.79376 521.59045 341.4344Q522.2936 342.0594 522.2936 343.1375ZM521.40295 347.1219Q521.40295 346.40314 520.9498 345.96564Q520.4967 345.5125 519.7623 345.5125Q519.02795 345.5125 518.5748 345.96564Q518.1373 346.40314 518.1373 347.1375Q518.1373 347.85626 518.5748 348.27814Q519.0123 348.6844 519.77795 348.6844Q520.52795 348.6844 520.96545 348.2625Q521.40295 347.84064 521.40295 347.1219ZM519.77795 341.6844Q519.1373 341.6844 518.7311 342.09064Q518.34045 342.48126 518.34045 343.16876Q518.34045 343.8094 518.7311 344.21564Q519.1217 344.6219 519.7623 344.6219Q520.4186 344.6219 520.8092 344.21564Q521.1998 343.8094 521.1998 343.16876Q521.1998 342.5125 520.7936 342.10626Q520.3873 341.6844 519.77795 341.6844ZM528.2623 345.7Q527.9342 346.10626 527.4498 346.35626Q526.9811 346.59064 526.4186 346.59064Q525.6842 346.59064 525.1373 346.23126Q524.59045 345.8719 524.2936 345.21564Q523.9967 344.54376 523.9967 343.7469Q523.9967 342.90314 524.3092 342.21564Q524.6373 341.52814 525.2311 341.16876Q525.84045 340.79376 526.6373 340.79376Q527.90295 340.79376 528.6217 341.7469Q529.3561 342.7 529.3561 344.325L529.3561 344.6375Q529.3561 347.1375 528.3717 348.27814Q527.3873 349.41876 525.40295 349.45L525.1842 349.45L525.1842 348.54376L525.4186 348.54376Q526.7623 348.5125 527.4811 347.84064Q528.1998 347.16876 528.2623 345.7ZM526.59045 345.7Q527.1373 345.7 527.59045 345.3719Q528.0592 345.02814 528.27795 344.54376L528.27795 344.10626Q528.27795 343.04376 527.8092 342.3719Q527.34045 341.7 526.6373 341.7Q525.9186 341.7 525.4811 342.2469Q525.0592 342.79376 525.0592 343.7Q525.0592 344.575 525.46545 345.1375Q525.8873 345.7 526.59045 345.7Z" fill-rule="nonzero"/><path fill="#757575" d="M543.98895 345.8094Q543.98895 347.71564 543.3327 348.65314Q542.6921 349.575 541.30145 349.575Q539.9421 349.575 539.2858 348.66876Q538.6296 347.7625 538.5983 345.95L538.5983 344.5125Q538.5983 342.6219 539.23895 341.71564Q539.8952 340.79376 541.2858 340.79376Q542.6608 340.79376 543.3171 341.6844Q543.9733 342.5594 543.98895 344.40314L543.98895 345.8094ZM542.8952 344.325Q542.8952 342.95 542.5046 342.325Q542.1296 341.6844 541.2858 341.6844Q540.4577 341.6844 540.0671 342.325Q539.6921 342.95 539.6921 344.2469L539.6921 345.98126Q539.6921 347.35626 540.0827 348.02814Q540.48895 348.6844 541.30145 348.6844Q542.0983 348.6844 542.48895 348.0594Q542.8796 347.4344 542.8952 346.10626L542.8952 344.325ZM545.7702 348.8875Q545.7702 348.60626 545.92645 348.41876Q546.0983 348.23126 546.42645 348.23126Q546.7702 348.23126 546.9421 348.41876Q547.11395 348.60626 547.11395 348.8875Q547.11395 349.15314 546.9421 349.34064Q546.7702 349.5125 546.42645 349.5125Q546.0983 349.5125 545.92645 349.34064Q545.7702 349.15314 545.7702 348.8875ZM552.7858 345.7Q552.4577 346.10626 551.9733 346.35626Q551.5046 346.59064 550.9421 346.59064Q550.2077 346.59064 549.6608 346.23126Q549.11395 345.8719 548.8171 345.21564Q548.5202 344.54376 548.5202 343.7469Q548.5202 342.90314 548.8327 342.21564Q549.1608 341.52814 549.7546 341.16876Q550.36395 340.79376 551.1608 340.79376Q552.42645 340.79376 553.1452 341.7469Q553.8796 342.7 553.8796 344.325L553.8796 344.6375Q553.8796 347.1375 552.8952 348.27814Q551.9108 349.41876 549.92645 349.45L549.7077 349.45L549.7077 348.54376L549.9421 348.54376Q551.2858 348.5125 552.0046 347.84064Q552.7233 347.16876 552.7858 345.7ZM551.11395 345.7Q551.6608 345.7 552.11395 345.3719Q552.5827 345.02814 552.80145 344.54376L552.80145 344.10626Q552.80145 343.04376 552.3327 342.3719Q551.86395 341.7 551.1608 341.7Q550.4421 341.7 550.0046 342.2469Q549.5827 342.79376 549.5827 343.7Q549.5827 344.575 549.98895 345.1375Q550.4108 345.7 551.11395 345.7ZM556.1296 345.16876L556.5671 340.91876L560.9421 340.91876L560.9421 341.91876L557.48895 341.91876L557.2233 344.2469Q557.86395 343.8719 558.6608 343.8719Q559.8171 343.8719 560.5046 344.65314Q561.1921 345.41876 561.1921 346.73126Q561.1921 348.04376 560.4733 348.8094Q559.7702 349.575 558.48895 349.575Q557.36395 349.575 556.6452 348.95Q555.92645 348.3094 555.8327 347.2L556.8483 347.2Q556.9577 347.9344 557.3796 348.3094Q557.80145 348.6844 558.48895 348.6844Q559.23895 348.6844 559.67645 348.16876Q560.11395 347.65314 560.11395 346.7469Q560.11395 345.8875 559.6452 345.3719Q559.17645 344.85626 558.3952 344.85626Q557.6921 344.85626 557.2858 345.15314L557.0046 345.3875L556.1296 345.16876Z" fill-rule="nonzero"/><path fill="#757575" d="M573.71564 349.45L572.6375 349.45L572.6375 342.23126L570.45 343.02814L570.45 342.04376L573.5594 340.8719L573.71564 340.8719L573.71564 349.45ZM577.29376 348.8875Q577.29376 348.60626 577.45 348.41876Q577.6219 348.23126 577.95 348.23126Q578.29376 348.23126 578.46564 348.41876Q578.6375 348.60626 578.6375 348.8875Q578.6375 349.15314 578.46564 349.34064Q578.29376 349.5125 577.95 349.5125Q577.6219 349.5125 577.45 349.34064Q577.29376 349.15314 577.29376 348.8875ZM585.5125 345.8094Q585.5125 347.71564 584.85626 348.65314Q584.21564 349.575 582.825 349.575Q581.46564 349.575 580.8094 348.66876Q580.15314 347.7625 580.1219 345.95L580.1219 344.5125Q580.1219 342.6219 580.7625 341.71564Q581.41876 340.79376 582.8094 340.79376Q584.1844 340.79376 584.84064 341.6844Q585.4969 342.5594 585.5125 344.40314L585.5125 345.8094ZM584.41876 344.325Q584.41876 342.95 584.02814 342.325Q583.65314 341.6844 582.8094 341.6844Q581.98126 341.6844 581.59064 342.325Q581.21564 342.95 581.21564 344.2469L581.21564 345.98126Q581.21564 347.35626 581.60626 348.02814Q582.0125 348.6844 582.825 348.6844Q583.6219 348.6844 584.0125 348.0594Q584.40314 347.4344 584.41876 346.10626L584.41876 344.325ZM590.71564 349.45L589.6375 349.45L589.6375 342.23126L587.45 343.02814L587.45 342.04376L590.5594 340.8719L590.71564 340.8719L590.71564 349.45Z" fill-rule="nonzero"/><path fill="#757575" d="M20.20625 37.55L20.20625 23.33125L24.221874 23.33125Q26.065624 23.33125 27.4875 24.159374Q28.925 24.971874 29.690624 26.4875Q30.471874 28.003124 30.4875 29.95625L30.4875 30.8625Q30.4875 32.878124 29.70625 34.39375Q28.925 35.909374 27.4875 36.721874Q26.05 37.534374 24.14375 37.55L20.20625 37.55ZM22.08125 24.878124L22.08125 36.01875L24.05 36.01875Q26.221874 36.01875 27.425 34.675Q28.628124 33.315624 28.628124 30.83125L28.628124 30.003124Q28.628124 27.58125 27.4875 26.2375Q26.346874 24.89375 24.26875 24.878124L22.08125 24.878124ZM34.878124 37.55L33.08125 37.55L33.08125 26.9875L34.878124 26.9875L34.878124 37.55ZM32.925 24.175Q32.925 23.7375 33.190624 23.440624Q33.471874 23.128124 33.9875 23.128124Q34.51875 23.128124 34.784374 23.440624Q35.065624 23.7375 35.065624 24.175Q35.065624 24.6125 34.784374 24.909374Q34.51875 25.20625 33.9875 25.20625Q33.471874 25.20625 33.190624 24.909374Q32.925 24.6125 32.925 24.175ZM44.065624 34.753124Q44.065624 34.01875 43.51875 33.6125Q42.971874 33.20625 41.596874 32.909374Q40.221874 32.6125 39.409374 32.20625Q38.6125 31.8 38.221874 31.2375Q37.846874 30.659374 37.846874 29.878124Q37.846874 28.58125 38.940624 27.690624Q40.034374 26.784374 41.753124 26.784374Q43.55 26.784374 44.659374 27.721874Q45.784374 28.64375 45.784374 30.08125L43.95625 30.08125Q43.95625 29.346874 43.33125 28.815624Q42.70625 28.26875 41.753124 28.26875Q40.753124 28.26875 40.190624 28.70625Q39.64375 29.128124 39.64375 29.83125Q39.64375 30.471874 40.159374 30.815624Q40.675 31.14375 42.034374 31.45625Q43.39375 31.753124 44.221874 32.175Q45.065624 32.58125 45.471874 33.175Q45.878124 33.76875 45.878124 34.6125Q45.878124 36.034374 44.7375 36.89375Q43.6125 37.753124 41.8 37.753124Q40.534374 37.753124 39.55 37.3Q38.58125 36.846874 38.01875 36.05Q37.471874 35.2375 37.471874 34.3L39.284374 34.3Q39.33125 35.20625 40.003124 35.7375Q40.690624 36.26875 41.8 36.26875Q42.83125 36.26875 43.440624 35.8625Q44.065624 35.440624 44.065624 34.753124ZM50.3625 24.425L50.3625 26.9875L52.346874 26.9875L52.346874 28.378124L50.3625 28.378124L50.3625 34.925Q50.3625 35.565624 50.628124 35.89375Q50.89375 36.20625 51.534374 36.20625Q51.846874 36.20625 52.39375 36.08125L52.39375 37.55Q51.675 37.753124 51.003124 37.753124Q49.8 37.753124 49.175 37.01875Q48.565624 36.284374 48.565624 34.925L48.565624 28.378124L46.64375 28.378124L46.64375 26.9875L48.565624 26.9875L48.565624 24.425L50.3625 24.425ZM60.01875 28.596874Q59.6125 28.534374 59.14375 28.534374Q57.3625 28.534374 56.721874 30.05L56.721874 37.55L54.925 37.55L54.925 26.9875L56.675 26.9875L56.70625 28.20625Q57.596874 26.784374 59.221874 26.784374Q59.753124 26.784374 60.01875 26.925L60.01875 28.596874ZM63.878124 37.55L62.08125 37.55L62.08125 26.9875L63.878124 26.9875L63.878124 37.55ZM61.925 24.175Q61.925 23.7375 62.190624 23.440624Q62.471874 23.128124 62.9875 23.128124Q63.51875 23.128124 63.784374 23.440624Q64.06563 23.7375 64.06563 24.175Q64.06563 24.6125 63.784374 24.909374Q63.51875 25.20625 62.9875 25.20625Q62.471874 25.20625 62.190624 24.909374Q61.925 24.6125 61.925 24.175ZM75.8625 32.378124Q75.8625 34.8 74.75313 36.284374Q73.64375 37.753124 71.76875 37.753124Q69.75313 37.753124 68.65938 36.33125L68.58125 37.55L66.925 37.55L66.925 22.55L68.72188 22.55L68.72188 28.14375Q69.81563 26.784374 71.7375 26.784374Q73.65938 26.784374 74.75313 28.2375Q75.8625 29.690624 75.8625 32.221874L75.8625 32.378124ZM74.05 32.175Q74.05 30.33125 73.33125 29.33125Q72.62813 28.315624 71.3 28.315624Q69.50313 28.315624 68.72188 29.9875L68.72188 34.55Q69.55 36.20625 71.31563 36.20625Q72.6125 36.20625 73.33125 35.20625Q74.05 34.20625 74.05 32.175ZM84.44063 36.503124Q83.39375 37.753124 81.34688 37.753124Q79.65938 37.753124 78.76875 36.76875Q77.89375 35.784374 77.87813 33.8625L77.87813 26.9875L79.69063 26.9875L79.69063 33.815624Q79.69063 36.20625 81.64375 36.20625Q83.70625 36.20625 84.39375 34.675L84.39375 26.9875L86.20625 26.9875L86.20625 37.55L84.4875 37.55L84.44063 36.503124ZM91.3625 24.425L91.3625 26.9875L93.34688 26.9875L93.34688 28.378124L91.3625 28.378124L91.3625 34.925Q91.3625 35.565624 91.62813 35.89375Q91.89375 36.20625 92.53438 36.20625Q92.84688 36.20625 93.39375 36.08125L93.39375 37.55Q92.675 37.753124 92.00313 37.753124Q90.8 37.753124 90.175 37.01875Q89.56563 36.284374 89.56563 34.925L89.56563 28.378124L87.64375 28.378124L87.64375 26.9875L89.56563 26.9875L89.56563 24.425L91.3625 24.425ZM97.87813 37.55L96.08125 37.55L96.08125 26.9875L97.87813 26.9875L97.87813 37.55ZM95.925 24.175Q95.925 23.7375 96.19063 23.440624Q96.47188 23.128124 96.9875 23.128124Q97.51875 23.128124 97.78438 23.440624Q98.06563 23.7375 98.06563 24.175Q98.06563 24.6125 97.78438 24.909374Q97.51875 25.20625 96.9875 25.20625Q96.47188 25.20625 96.19063 24.909374Q95.925 24.6125 95.925 24.175ZM100.44063 32.175Q100.44063 30.6125 101.05 29.378124Q101.65938 28.128124 102.7375 27.45625Q103.83125 26.784374 105.2375 26.784374Q107.39375 26.784374 108.72188 28.284374Q110.06563 29.76875 110.06563 32.253124L110.06563 32.378124Q110.06563 33.925 109.47188 35.159374Q108.87813 36.378124 107.76875 37.065624Q106.675 37.753124 105.25313 37.753124Q103.1125 37.753124 101.76875 36.253124Q100.44063 34.753124 100.44063 32.3L100.44063 32.175ZM102.25313 32.378124Q102.25313 34.14375 103.06563 35.20625Q103.89375 36.26875 105.25313 36.26875Q106.62813 36.26875 107.44063 35.190624Q108.25313 34.1125 108.25313 32.175Q108.25313 30.425 107.425 29.346874Q106.59688 28.26875 105.2375 28.26875Q103.89375 28.26875 103.06563 29.33125Q102.25313 30.39375 102.25313 32.378124ZM113.62813 26.9875L113.69063 28.315624Q114.89375 26.784374 116.84688 26.784374Q120.20625 26.784374 120.22188 30.565624L120.22188 37.55L118.425 37.55L118.425 30.55Q118.40938 29.409374 117.89375 28.8625Q117.39375 28.315624 116.3 28.315624Q115.425 28.315624 114.75313 28.784374Q114.09688 29.253124 113.72188 30.01875L113.72188 37.55L111.925 37.55L111.925 26.9875L113.62813 26.9875ZM127.44063 32.175Q127.44063 30.6125 128.05 29.378124Q128.65938 28.128124 129.7375 27.45625Q130.83125 26.784374 132.2375 26.784374Q134.39375 26.784374 135.72188 28.284374Q137.06563 29.76875 137.06563 32.253124L137.06563 32.378124Q137.06563 33.925 136.47188 35.159374Q135.87813 36.378124 134.76875 37.065624Q133.675 37.753124 132.25313 37.753124Q130.1125 37.753124 128.76875 36.253124Q127.44063 34.753124 127.44063 32.3L127.44063 32.175ZM129.25313 32.378124Q129.25313 34.14375 130.06563 35.20625Q130.89375 36.26875 132.25313 36.26875Q133.62813 36.26875 134.44063 35.190624Q135.25313 34.1125 135.25313 32.175Q135.25313 30.425 134.425 29.346874Q133.59688 28.26875 132.2375 28.26875Q130.89375 28.26875 130.06563 29.33125Q129.25313 30.39375 129.25313 32.378124ZM139.8 37.55L139.8 28.378124L138.14375 28.378124L138.14375 26.9875L139.8 26.9875L139.8 25.89375Q139.8 24.20625 140.70625 23.284374Q141.62813 22.346874 143.28438 22.346874Q143.90938 22.346874 144.51875 22.503124L144.425 23.971874Q143.97188 23.89375 143.45625 23.89375Q142.56563 23.89375 142.08125 24.409374Q141.6125 24.909374 141.6125 25.8625L141.6125 26.9875L143.8625 26.9875L143.8625 28.378124L141.6125 28.378124L141.6125 37.55L139.8 37.55ZM152.87813 37.55L151.08125 37.55L151.08125 22.55L152.87813 22.55L152.87813 37.55ZM162.44063 37.55Q162.28438 37.2375 162.19063 36.440624Q160.925 37.753124 159.175 37.753124Q157.6125 37.753124 156.6125 36.8625Q155.6125 35.971874 155.6125 34.6125Q155.6125 32.971874 156.8625 32.065624Q158.12813 31.14375 160.39375 31.14375L162.15938 31.14375L162.15938 30.315624Q162.15938 29.3625 161.58125 28.8Q161.01875 28.2375 159.925 28.2375Q158.95625 28.2375 158.3 28.7375Q157.64375 29.221874 157.64375 29.909374L155.83125 29.909374Q155.83125 29.128124 156.39375 28.39375Q156.95625 27.64375 157.90938 27.221874Q158.87813 26.784374 160.03438 26.784374Q161.8625 26.784374 162.89375 27.70625Q163.925 28.6125 163.97188 30.221874L163.97188 35.08125Q163.97188 36.534374 164.33125 37.39375L164.33125 37.55L162.44063 37.55ZM159.44063 36.175Q160.3 36.175 161.05 35.7375Q161.81563 35.3 162.15938 34.596874L162.15938 32.425L160.7375 32.425Q157.425 32.425 157.425 34.3625Q157.425 35.221874 157.9875 35.70625Q158.55 36.175 159.44063 36.175ZM172.01875 28.596874Q171.6125 28.534374 171.14375 28.534374Q169.3625 28.534374 168.72188 30.05L168.72188 37.55L166.925 37.55L166.925 26.9875L168.675 26.9875L168.70625 28.20625Q169.59688 26.784374 171.22188 26.784374Q171.75313 26.784374 172.01875 26.925L172.01875 28.596874ZM173.4875 32.175Q173.4875 29.70625 174.62813 28.253124Q175.76875 26.784374 177.65938 26.784374Q179.59688 26.784374 180.675 28.159374L180.76875 26.9875L182.40938 26.9875L182.40938 37.3Q182.40938 39.346874 181.19063 40.51875Q179.9875 41.70625 177.925 41.70625Q176.78438 41.70625 175.69063 41.221874Q174.59688 40.7375 174.01875 39.878124L174.95625 38.8Q176.12813 40.2375 177.8 40.2375Q179.12813 40.2375 179.8625 39.4875Q180.59688 38.753124 180.59688 37.409374L180.59688 36.4875Q179.51875 37.753124 177.64375 37.753124Q175.78438 37.753124 174.62813 36.253124Q173.4875 34.753124 173.4875 32.175ZM175.3 32.378124Q175.3 34.175 176.03438 35.190624Q176.76875 36.20625 178.08125 36.20625Q179.8 36.20625 180.59688 34.659374L180.59688 29.83125Q179.76875 28.315624 178.1125 28.315624Q176.78438 28.315624 176.03438 29.346874Q175.3 30.378124 175.3 32.378124ZM189.3 37.753124Q187.15938 37.753124 185.8 36.346874Q184.45625 34.925 184.45625 32.565624L184.45625 32.221874Q184.45625 30.659374 185.05 29.425Q185.65938 28.190624 186.7375 27.4875Q187.81563 26.784374 189.08125 26.784374Q191.14375 26.784374 192.28438 28.14375Q193.425 29.503124 193.425 32.034374L193.425 32.784374L186.26875 32.784374Q186.3 34.346874 187.175 35.315624Q188.05 36.26875 189.39375 36.26875Q190.3625 36.26875 191.01875 35.878124Q191.69063 35.4875 192.19063 34.846874L193.28438 35.70625Q191.95625 37.753124 189.3 37.753124ZM189.08125 28.26875Q187.9875 28.26875 187.2375 29.065624Q186.50313 29.8625 186.33125 31.3L191.6125 31.3L191.6125 31.159374Q191.53438 29.784374 190.8625 29.034374Q190.20625 28.26875 189.08125 28.26875ZM202.06563 34.753124Q202.06563 34.01875 201.51875 33.6125Q200.97188 33.20625 199.59688 32.909374Q198.22188 32.6125 197.40938 32.20625Q196.6125 31.8 196.22188 31.2375Q195.84688 30.659374 195.84688 29.878124Q195.84688 28.58125 196.94063 27.690624Q198.03438 26.784374 199.75313 26.784374Q201.55 26.784374 202.65938 27.721874Q203.78438 28.64375 203.78438 30.08125L201.95625 30.08125Q201.95625 29.346874 201.33125 28.815624Q200.70625 28.26875 199.75313 28.26875Q198.75313 28.26875 198.19063 28.70625Q197.64375 29.128124 197.64375 29.83125Q197.64375 30.471874 198.15938 30.815624Q198.675 31.14375 200.03438 31.45625Q201.39375 31.753124 202.22188 32.175Q203.06563 32.58125 203.47188 33.175Q203.87813 33.76875 203.87813 34.6125Q203.87813 36.034374 202.7375 36.89375Q201.6125 37.753124 199.8 37.753124Q198.53438 37.753124 197.55 37.3Q196.58125 36.846874 196.01875 36.05Q195.47188 35.2375 195.47188 34.3L197.28438 34.3Q197.33125 35.20625 198.00313 35.7375Q198.69063 36.26875 199.8 36.26875Q200.83125 36.26875 201.44063 35.8625Q202.06563 35.440624 202.06563 34.753124ZM208.3625 24.425L208.3625 26.9875L210.34688 26.9875L210.34688 28.378124L208.3625 28.378124L208.3625 34.925Q208.3625 35.565624 208.62813 35.89375Q208.89375 36.20625 209.53438 36.20625Q209.84688 36.20625 210.39375 36.08125L210.39375 37.55Q209.675 37.753124 209.00313 37.753124Q207.8 37.753124 207.175 37.01875Q206.56563 36.284374 206.56563 34.925L206.56563 28.378124L204.64375 28.378124L204.64375 26.9875L206.56563 26.9875L206.56563 24.425L208.3625 24.425ZM222.15938 36.26875Q223.12813 36.26875 223.84688 35.690624Q224.56563 35.096874 224.64375 34.221874L226.3625 34.221874Q226.3 35.128124 225.72188 35.95625Q225.15938 36.76875 224.19063 37.26875Q223.2375 37.753124 222.15938 37.753124Q220.00313 37.753124 218.72188 36.315624Q217.45625 34.8625 217.45625 32.3625L217.45625 32.065624Q217.45625 30.51875 218.01875 29.315624Q218.58125 28.1125 219.64375 27.45625Q220.70625 26.784374 222.14375 26.784374Q223.925 26.784374 225.09688 27.846874Q226.28438 28.909374 226.3625 30.6125L224.64375 30.6125Q224.56563 29.596874 223.8625 28.940624Q223.175 28.26875 222.14375 28.26875Q220.76875 28.26875 220.00313 29.26875Q219.25313 30.253124 219.25313 32.128124L219.25313 32.471874Q219.25313 34.3 220.00313 35.284374Q220.75313 36.26875 222.15938 36.26875ZM227.44063 32.175Q227.44063 30.6125 228.05 29.378124Q228.65938 28.128124 229.7375 27.45625Q230.83125 26.784374 232.2375 26.784374Q234.39375 26.784374 235.72188 28.284374Q237.06563 29.76875 237.06563 32.253124L237.06563 32.378124Q237.06563 33.925 236.47188 35.159374Q235.87813 36.378124 234.76875 37.065624Q233.675 37.753124 232.25313 37.753124Q230.1125 37.753124 228.76875 36.253124Q227.44063 34.753124 227.44063 32.3L227.44063 32.175ZM229.25313 32.378124Q229.25313 34.14375 230.06563 35.20625Q230.89375 36.26875 232.25313 36.26875Q233.62813 36.26875 234.44063 35.190624Q235.25313 34.1125 235.25313 32.175Q235.25313 30.425 234.425 29.346874Q233.59688 28.26875 232.2375 28.26875Q230.89375 28.26875 230.06563 29.33125Q229.25313 30.39375 229.25313 32.378124ZM240.62813 26.9875L240.69063 28.315624Q241.89375 26.784374 243.84688 26.784374Q247.20625 26.784374 247.22188 30.565624L247.22188 37.55L245.425 37.55L245.425 30.55Q245.40938 29.409374 244.89375 28.8625Q244.39375 28.315624 243.3 28.315624Q242.425 28.315624 241.75313 28.784374Q241.09688 29.253124 240.72188 30.01875L240.72188 37.55L238.925 37.55L238.925 26.9875L240.62813 26.9875ZM252.3625 24.425L252.3625 26.9875L254.34688 26.9875L254.34688 28.378124L252.3625 28.378124L252.3625 34.925Q252.3625 35.565624 252.62813 35.89375Q252.89375 36.20625 253.53438 36.20625Q253.84688 36.20625 254.39375 36.08125L254.39375 37.55Q253.675 37.753124 253.00313 37.753124Q251.8 37.753124 251.175 37.01875Q250.56563 36.284374 250.56563 34.925L250.56563 28.378124L248.64375 28.378124L248.64375 26.9875L250.56563 26.9875L250.56563 24.425L252.3625 24.425ZM261.3 37.753124Q259.15936 37.753124 257.8 36.346874Q256.45624 34.925 256.45624 32.565624L256.45624 32.221874Q256.45624 30.659374 257.05 29.425Q257.65936 28.190624 258.7375 27.4875Q259.8156 26.784374 261.08124 26.784374Q263.14374 26.784374 264.28436 28.14375Q265.425 29.503124 265.425 32.034374L265.425 32.784374L258.26874 32.784374Q258.3 34.346874 259.175 35.315624Q260.05 36.26875 261.39374 36.26875Q262.3625 36.26875 263.01874 35.878124Q263.6906 35.4875 264.1906 34.846874L265.28436 35.70625Q263.95624 37.753124 261.3 37.753124ZM261.08124 28.26875Q259.9875 28.26875 259.2375 29.065624Q258.5031 29.8625 258.33124 31.3L263.6125 31.3L263.6125 31.159374Q263.53436 29.784374 262.8625 29.034374Q262.20624 28.26875 261.08124 28.26875ZM269.6281 26.9875L269.6906 28.315624Q270.89374 26.784374 272.84686 26.784374Q276.20624 26.784374 276.22186 30.565624L276.22186 37.55L274.425 37.55L274.425 30.55Q274.40936 29.409374 273.89374 28.8625Q273.39374 28.315624 272.3 28.315624Q271.425 28.315624 270.7531 28.784374Q270.09686 29.253124 269.72186 30.01875L269.72186 37.55L267.925 37.55L267.925 26.9875L269.6281 26.9875ZM281.3625 24.425L281.3625 26.9875L283.34686 26.9875L283.34686 28.378124L281.3625 28.378124L281.3625 34.925Q281.3625 35.565624 281.6281 35.89375Q281.89374 36.20625 282.53436 36.20625Q282.84686 36.20625 283.39374 36.08125L283.39374 37.55Q282.675 37.753124 282.0031 37.753124Q280.8 37.753124 280.175 37.01875Q279.5656 36.284374 279.5656 34.925L279.5656 28.378124L277.64374 28.378124L277.64374 26.9875L279.5656 26.9875L279.5656 24.425L281.3625 24.425ZM286.8 37.55L286.8 28.378124L285.14374 28.378124L285.14374 26.9875L286.8 26.9875L286.8 25.89375Q286.8 24.20625 287.70624 23.284374Q288.6281 22.346874 290.28436 22.346874Q290.90936 22.346874 291.51874 22.503124L291.425 23.971874Q290.97186 23.89375 290.45624 23.89375Q289.5656 23.89375 289.08124 24.409374Q288.6125 24.909374 288.6125 25.8625L288.6125 26.9875L290.8625 26.9875L290.8625 28.378124L288.6125 28.378124L288.6125 37.55L286.8 37.55ZM299.4406 36.503124Q298.39374 37.753124 296.34686 37.753124Q294.65936 37.753124 293.76874 36.76875Q292.89374 35.784374 292.8781 33.8625L292.8781 26.9875L294.6906 26.9875L294.6906 33.815624Q294.6906 36.20625 296.64374 36.20625Q298.70624 36.20625 299.39374 34.675L299.39374 26.9875L301.20624 26.9875L301.20624 37.55L299.4875 37.55L299.4406 36.503124ZM305.8781 37.55L304.08124 37.55L304.08124 22.55L305.8781 22.55L305.8781 37.55ZM322.84686 32.378124Q322.84686 34.8 321.7375 36.284374Q320.64374 37.753124 318.7531 37.753124Q316.83124 37.753124 315.72186 36.51875L315.72186 41.6125L313.925 41.6125L313.925 26.9875L315.5656 26.9875L315.65936 28.159374Q316.7531 26.784374 318.72186 26.784374Q320.6281 26.784374 321.7375 28.221874Q322.84686 29.659374 322.84686 32.221874L322.84686 32.378124ZM321.03436 32.175Q321.03436 30.39375 320.26874 29.3625Q319.51874 28.315624 318.1906 28.315624Q316.55 28.315624 315.72186 29.76875L315.72186 34.83125Q316.53436 36.26875 318.20624 36.26875Q319.5031 36.26875 320.26874 35.2375Q321.03436 34.20625 321.03436 32.175ZM331.4406 37.55Q331.28436 37.2375 331.1906 36.440624Q329.925 37.753124 328.175 37.753124Q326.6125 37.753124 325.6125 36.8625Q324.6125 35.971874 324.6125 34.6125Q324.6125 32.971874 325.8625 32.065624Q327.1281 31.14375 329.39374 31.14375L331.15936 31.14375L331.15936 30.315624Q331.15936 29.3625 330.58124 28.8Q330.01874 28.2375 328.925 28.2375Q327.95624 28.2375 327.3 28.7375Q326.64374 29.221874 326.64374 29.909374L324.83124 29.909374Q324.83124 29.128124 325.39374 28.39375Q325.95624 27.64375 326.90936 27.221874Q327.8781 26.784374 329.03436 26.784374Q330.8625 26.784374 331.89374 27.70625Q332.925 28.6125 332.97186 30.221874L332.97186 35.08125Q332.97186 36.534374 333.33124 37.39375L333.33124 37.55L331.4406 37.55ZM328.4406 36.175Q329.3 36.175 330.05 35.7375Q330.8156 35.3 331.15936 34.596874L331.15936 32.425L329.7375 32.425Q326.425 32.425 326.425 34.3625Q326.425 35.221874 326.9875 35.70625Q327.55 36.175 328.4406 36.175ZM337.8781 37.55L336.08124 37.55L336.08124 26.9875L337.8781 26.9875L337.8781 37.55ZM335.925 24.175Q335.925 23.7375 336.1906 23.440624Q336.47186 23.128124 336.9875 23.128124Q337.51874 23.128124 337.78436 23.440624Q338.0656 23.7375 338.0656 24.175Q338.0656 24.6125 337.78436 24.909374Q337.51874 25.20625 336.9875 25.20625Q336.47186 25.20625 336.1906 24.909374Q335.925 24.6125 335.925 24.175ZM342.6281 26.9875L342.6906 28.315624Q343.89374 26.784374 345.84686 26.784374Q349.20624 26.784374 349.22186 30.565624L349.22186 37.55L347.425 37.55L347.425 30.55Q347.40936 29.409374 346.89374 28.8625Q346.39374 28.315624 345.3 28.315624Q344.425 28.315624 343.7531 28.784374Q343.09686 29.253124 342.72186 30.01875L342.72186 37.55L340.925 37.55L340.925 26.9875L342.6281 26.9875ZM354.3625 24.425L354.3625 26.9875L356.34686 26.9875L356.34686 28.378124L354.3625 28.378124L354.3625 34.925Q354.3625 35.565624 354.6281 35.89375Q354.89374 36.20625 355.53436 36.20625Q355.84686 36.20625 356.39374 36.08125L356.39374 37.55Q355.675 37.753124 355.0031 37.753124Q353.8 37.753124 353.175 37.01875Q352.5656 36.284374 352.5656 34.925L352.5656 28.378124L350.64374 28.378124L350.64374 26.9875L352.5656 26.9875L352.5656 24.425L354.3625 24.425ZM370.0656 34.753124Q370.0656 34.01875 369.51874 33.6125Q368.97186 33.20625 367.59686 32.909374Q366.22186 32.6125 365.40936 32.20625Q364.6125 31.8 364.22186 31.2375Q363.84686 30.659374 363.84686 29.878124Q363.84686 28.58125 364.9406 27.690624Q366.03436 26.784374 367.7531 26.784374Q369.55 26.784374 370.65936 27.721874Q371.78436 28.64375 371.78436 30.08125L369.95624 30.08125Q369.95624 29.346874 369.33124 28.815624Q368.70624 28.26875 367.7531 28.26875Q366.7531 28.26875 366.1906 28.70625Q365.64374 29.128124 365.64374 29.83125Q365.64374 30.471874 366.15936 30.815624Q366.675 31.14375 368.03436 31.45625Q369.39374 31.753124 370.22186 32.175Q371.0656 32.58125 371.47186 33.175Q371.8781 33.76875 371.8781 34.6125Q371.8781 36.034374 370.7375 36.89375Q369.6125 37.753124 367.8 37.753124Q366.53436 37.753124 365.55 37.3Q364.58124 36.846874 364.01874 36.05Q363.47186 35.2375 363.47186 34.3L365.28436 34.3Q365.33124 35.20625 366.0031 35.7375Q366.6906 36.26875 367.8 36.26875Q368.83124 36.26875 369.4406 35.8625Q370.0656 35.440624 370.0656 34.753124ZM378.15936 36.26875Q379.1281 36.26875 379.84686 35.690624Q380.5656 35.096874 380.64374 34.221874L382.3625 34.221874Q382.3 35.128124 381.72186 35.95625Q381.15936 36.76875 380.1906 37.26875Q379.2375 37.753124 378.15936 37.753124Q376.0031 37.753124 374.72186 36.315624Q373.45624 34.8625 373.45624 32.3625L373.45624 32.065624Q373.45624 30.51875 374.01874 29.315624Q374.58124 28.1125 375.64374 27.45625Q376.70624 26.784374 378.14374 26.784374Q379.925 26.784374 381.09686 27.846874Q382.28436 28.909374 382.3625 30.6125L380.64374 30.6125Q380.5656 29.596874 379.8625 28.940624Q379.175 28.26875 378.14374 28.26875Q376.76874 28.26875 376.0031 29.26875Q375.2531 30.253124 375.2531 32.128124L375.2531 32.471874Q375.2531 34.3 376.0031 35.284374Q376.7531 36.26875 378.15936 36.26875ZM383.4406 32.175Q383.4406 30.6125 384.05 29.378124Q384.65936 28.128124 385.7375 27.45625Q386.83124 26.784374 388.2375 26.784374Q390.39374 26.784374 391.72186 28.284374Q393.0656 29.76875 393.0656 32.253124L393.0656 32.378124Q393.0656 33.925 392.47186 35.159374Q391.8781 36.378124 390.76874 37.065624Q389.675 37.753124 388.2531 37.753124Q386.1125 37.753124 384.76874 36.253124Q383.4406 34.753124 383.4406 32.3L383.4406 32.175ZM385.2531 32.378124Q385.2531 34.14375 386.0656 35.20625Q386.89374 36.26875 388.2531 36.26875Q389.6281 36.26875 390.4406 35.190624Q391.2531 34.1125 391.2531 32.175Q391.2531 30.425 390.425 29.346874Q389.59686 28.26875 388.2375 28.26875Q386.89374 28.26875 386.0656 29.33125Q385.2531 30.39375 385.2531 32.378124ZM400.01874 28.596874Q399.6125 28.534374 399.14374 28.534374Q397.3625 28.534374 396.72186 30.05L396.72186 37.55L394.925 37.55L394.925 26.9875L396.675 26.9875L396.70624 28.20625Q397.59686 26.784374 399.22186 26.784374Q399.7531 26.784374 400.01874 26.925L400.01874 28.596874ZM406.3 37.753124Q404.15936 37.753124 402.8 36.346874Q401.45624 34.925 401.45624 32.565624L401.45624 32.221874Q401.45624 30.659374 402.05 29.425Q402.65936 28.190624 403.7375 27.4875Q404.8156 26.784374 406.08124 26.784374Q408.14374 26.784374 409.28436 28.14375Q410.425 29.503124 410.425 32.034374L410.425 32.784374L403.26874 32.784374Q403.3 34.346874 404.175 35.315624Q405.05 36.26875 406.39374 36.26875Q407.3625 36.26875 408.01874 35.878124Q408.6906 35.4875 409.1906 34.846874L410.28436 35.70625Q408.95624 37.753124 406.3 37.753124ZM406.08124 28.26875Q404.9875 28.26875 404.2375 29.065624Q403.5031 29.8625 403.33124 31.3L408.6125 31.3L408.6125 31.159374Q408.53436 29.784374 407.8625 29.034374Q407.20624 28.26875 406.08124 28.26875ZM419.0656 34.753124Q419.0656 34.01875 418.51874 33.6125Q417.97186 33.20625 416.59686 32.909374Q415.22186 32.6125 414.40936 32.20625Q413.6125 31.8 413.22186 31.2375Q412.84686 30.659374 412.84686 29.878124Q412.84686 28.58125 413.9406 27.690624Q415.03436 26.784374 416.7531 26.784374Q418.55 26.784374 419.65936 27.721874Q420.78436 28.64375 420.78436 30.08125L418.95624 30.08125Q418.95624 29.346874 418.33124 28.815624Q417.70624 28.26875 416.7531 28.26875Q415.7531 28.26875 415.1906 28.70625Q414.64374 29.128124 414.64374 29.83125Q414.64374 30.471874 415.15936 30.815624Q415.675 31.14375 417.03436 31.45625Q418.39374 31.753124 419.22186 32.175Q420.0656 32.58125 420.47186 33.175Q420.8781 33.76875 420.8781 34.6125Q420.8781 36.034374 419.7375 36.89375Q418.6125 37.753124 416.8 37.753124Q415.53436 37.753124 414.55 37.3Q413.58124 36.846874 413.01874 36.05Q412.47186 35.2375 412.47186 34.3L414.28436 34.3Q414.33124 35.20625 415.0031 35.7375Q415.6906 36.26875 416.8 36.26875Q417.83124 36.26875 418.4406 35.8625Q419.0656 35.440624 419.0656 34.753124Z" fill-rule="nonzero"/></svg>